<?xml version="1.0" encoding="utf-8"?>
<!-- Generator: Adobe Illustrator 20.0.0, SVG Export Plug-In . SVG Version: 6.00 Build 0)  -->
<svg version="1.1" id="mockup" xmlns="http://www.w3.org/2000/svg" xmlns:xlink="http://www.w3.org/1999/xlink" x="0px" y="0px"
	 viewBox="0 0 64 64" style="enable-background:new 0 0 64 64;" xml:space="preserve">
<style type="text/css">
	.st0{fill:#EE3D40;}
	.st1{fill:#D6D6D6;}
	.st2{fill:#FFFFFF;}
	.st3{fill:#FFFFFF;stroke:#000000;stroke-width:2;stroke-miterlimit:10;}
	.st4{fill:none;stroke:#000000;stroke-width:10;stroke-miterlimit:10;}
	.st5{fill:none;stroke:#020202;stroke-width:2;stroke-miterlimit:10;}
	.st6{fill:#333333;}
	.st7{fill:#E0C6C8;}
	.st8{fill:none;stroke:#EF7083;stroke-miterlimit:10;}
	.st9{fill:none;stroke:#E0C6C8;stroke-width:3;stroke-miterlimit:10;}
	.st10{fill:none;stroke:#E0C6C8;stroke-width:3;stroke-linecap:round;stroke-linejoin:bevel;stroke-miterlimit:10;}
	.st11{fill:#DB2C34;stroke:#000000;stroke-miterlimit:10;}
	.st12{fill:none;stroke:#ADADAD;stroke-width:1.0152;stroke-miterlimit:10;}
	.st13{clip-path:url(#SVGID_2_);}
	.st14{fill:#606060;}
	.st15{fill:#7C7C7C;}
	.st16{fill:none;stroke:#ADADAD;stroke-width:1.1123;stroke-miterlimit:10;}
	.st17{clip-path:url(#SVGID_4_);}
	.st18{fill:none;stroke:#D8D8D8;stroke-miterlimit:10;}
	.st19{fill:#E44B23;}
	.st20{fill:#563D7C;}
	.st21{fill:#F1E05A;}
	.st22{fill:#701516;}
	.st23{fill:#2B2728;stroke:#000000;stroke-miterlimit:10;}
	.st24{fill:#AF1F24;}
	.st25{fill:#FFE6EA;}
	.st26{fill:#020202;}
	.st27{fill:none;stroke:#020202;stroke-width:1.5077;stroke-miterlimit:10;}
</style>
<g>
	<path class="st2" d="M53.7,63c-0.9,0-1.6-0.6-1.9-0.9c-0.2-0.2-3.9-5.5-18.5-26.8c-6-8.8-11.7-17-12.1-17.6
		c-0.6-0.8-3.5-2.7-6.1-2.7c-0.8,0-1.5,0.2-2.1,0.6c-1.9,1.4-2,2.3-1.8,2.5l0.4,0.6L11,19l-3.5,3l-6.1-7.5l4.1-3L6,12.1
		c0,0,0.2,0.2,0.5,0.2c0.3,0,0.9-0.2,1.8-0.9c1.6-1.4,1.9-3.8,1.9-3.8l0-0.2l0.1-0.2c0.1-0.1,1.3-1.5,5.4-3.9
		c3.3-1.8,5.3-2.1,6.8-2.1c0.2,0,1.1,0,1.1,0c0.9,0,3.5,0.1,7.6,1C35,3,36.6,4.6,36.7,4.7L37,4.9l-0.2,1.9l-0.9-0.2
		c0,0-3.6-1-7.6-1.3c-0.6,0-1.1-0.1-1.6-0.1c-2,0-2.8,0.4-3.1,0.8c-0.1,0.1-0.4,0.4-0.2,1.3c0.4,2,1.8,4.4,2.7,5.8
		c0.2,0.4,0.4,0.7,0.6,0.9c0.7,1,16.4,19.7,25.9,30.8c6.5,7.6,8.1,9.5,8.2,9.7l0.1,0.1c0.4,0.5,1.1,1.5,0.5,2.5
		c-0.6,0.9-2.1,2.4-3.3,3.4c-1.3,1.1-3,2-3.7,2.3C54.1,62.9,53.9,63,53.7,63z"/>
	<path d="M22.6,1.9c0.4,0,0.7,0,1,0c0,0,0,0,0.1,0c0,0,0.1,0,0.1,0c1.4,0,3.9,0.2,7.4,1c3.6,0.8,5,2.3,5,2.3l-0.1,0.6
		c0,0-3.6-1-7.7-1.3c-0.6,0-1.1-0.1-1.6-0.1c-2.9,0-4.5,0.8-4,3c0.5,2.6,2.7,5.7,3.3,7c0.7,1.3,33.8,40.1,34.1,40.6
		c0.3,0.5,0.9,1.2,0.5,1.8c-0.5,0.8-1.9,2.2-3.1,3.2c-1.2,1-2.8,1.9-3.5,2.1c-0.1,0.1-0.3,0.1-0.4,0.1c-0.6,0-1.1-0.4-1.4-0.7
		c-0.4-0.4-29.5-43-30.5-44.4c-0.7-1-3.9-3-6.7-3c-0.9,0-1.8,0.2-2.5,0.7c-3,2.2-2,3.5-2,3.5l-2.9,2.5l-5.1-6.3l2.9-2.1
		c0,0,0.4,0.5,1.1,0.5c0.6,0,1.3-0.3,2.3-1.1c1.8-1.6,2.1-4.3,2.1-4.3s1.1-1.3,5.2-3.7C19.4,2.1,21.3,1.9,22.6,1.9 M22.6,0.4
		L22.6,0.4c-1.6,0-3.7,0.3-7.2,2.2C11.2,5,10,6.4,9.8,6.7L9.5,7L9.4,7.4c0,0-0.3,2.1-1.6,3.3c-0.8,0.7-1.2,0.7-1.3,0.7
		c0,0,0,0.1,0.1,0.1l-0.9-1.2l-1.2,0.9l-2.9,2.1l-1.3,0.9l1,1.2l5.1,6.3l1,1.2l1.2-1l2.9-2.5l1.1-0.9l-0.7-0.9
		c0.1-0.2,0.4-0.8,1.5-1.6c0.4-0.3,1-0.5,1.6-0.5c2.4,0,5.1,1.8,5.5,2.3c0.4,0.6,6.1,8.8,12.1,17.6c16.8,24.5,18.3,26.7,18.5,26.9
		c0.4,0.4,1.3,1.2,2.5,1.2c0.3,0,0.7-0.1,1-0.2c0.8-0.3,2.5-1.2,3.9-2.4c1.2-1,2.8-2.6,3.5-3.6c0.9-1.4-0.1-2.8-0.5-3.4l-0.1-0.1
		c-0.1-0.2-0.8-1-8.3-9.8C44.5,34.1,28.4,15,27.4,13.6c-0.1-0.3-0.3-0.6-0.6-0.9C26,11.3,24.6,9,24.2,7.1c0-0.2-0.1-0.6,0-0.7
		c0.1-0.1,0.5-0.5,2.5-0.5c0.4,0,0.9,0,1.5,0.1c3.9,0.3,7.4,1.3,7.5,1.3l1.7,0.5l0.2-1.8l0.1-0.6l0.1-0.7l-0.5-0.5
		c-0.2-0.2-1.9-1.8-5.8-2.7c-4.1-0.9-6.8-1-7.7-1l-0.1,0l-0.1,0c-0.1,0-0.3,0-0.4,0C23,0.4,22.8,0.4,22.6,0.4L22.6,0.4L22.6,0.4z"/>
</g>
<line class="st27" x1="5.4" y1="11.3" x2="12" y2="19.1"/>
<path class="st27" d="M26.7,14.5c0,0-1,1.3-2.1,2.2c-1.1,0.9-2.8,1.7-2.8,1.7"/>
<path class="st27" d="M49,58.1c0,0,2.2-0.9,5-3.2c2.8-2.3,3.8-4.1,3.8-4.1"/>
<path class="st26" d="M10.9,17.3l5.2-2.5l5.2,2.5c0,0,1.3,1.2,3-0.9c1.8-2,2.2-3.2,2.2-3.2S22.2,7,23.7,6s12.9,0.7,12.9,0.7l0.6-1.9
	c0,0-4.2-2.5-9.4-3.2s-7.3-1.1-9.3,0s-8.3,5.3-8.3,5.3s0.2,1.4-1,3.1s-2.8,2.5-2.8,2.5L10.9,17.3z"/>
<path class="st2" d="M11.4,8.6c0,0,1.5-1.9,5.9-4.3C21.8,1.8,25.2,3,25.2,3l-1.2,0.7c0,0-3.4-0.1-6,1.5c-1.7,1.1-5.7,4.5-5.7,4.5
	L11.4,8.6z"/>
</svg>
