<?xml version="1.0" encoding="utf-8"?>
<!-- Generator: Adobe Illustrator 19.2.1, SVG Export Plug-In . SVG Version: 6.00 Build 0)  -->
<svg version="1.1" id="mockup" xmlns="http://www.w3.org/2000/svg" xmlns:xlink="http://www.w3.org/1999/xlink" x="0px" y="0px"
	 viewBox="0 0 94.6 42.1" style="enable-background:new 0 0 94.6 42.1;" xml:space="preserve">
<style type="text/css">
	.st0{fill:#EE3D40;}
	.st1{fill:#D6D6D6;}
	.st2{fill:#FFFFFF;}
	.st3{fill:#FFFFFF;stroke:#000000;stroke-width:2;stroke-miterlimit:10;}
	.st4{fill:none;stroke:#000000;stroke-width:10;stroke-miterlimit:10;}
	.st5{fill:none;stroke:#020202;stroke-width:2;stroke-miterlimit:10;}
	.st6{fill:#333333;}
	.st7{fill:#E0C6C8;}
	.st8{fill:none;stroke:#EF7083;stroke-miterlimit:10;}
	.st9{fill:none;stroke:#E0C6C8;stroke-width:3;stroke-miterlimit:10;}
	.st10{fill:none;stroke:#E0C6C8;stroke-width:3;stroke-linecap:round;stroke-linejoin:bevel;stroke-miterlimit:10;}
	.st11{fill:#DB2C34;stroke:#000000;stroke-miterlimit:10;}
	.st12{fill:none;stroke:#ADADAD;stroke-width:1.0152;stroke-miterlimit:10;}
	.st13{clip-path:url(#SVGID_2_);}
	.st14{fill:#606060;}
	.st15{fill:#7C7C7C;}
	.st16{fill:none;stroke:#ADADAD;stroke-width:1.1123;stroke-miterlimit:10;}
	.st17{clip-path:url(#SVGID_4_);}
	.st18{fill:none;stroke:#D8D8D8;stroke-miterlimit:10;}
	.st19{fill:#E44B23;}
	.st20{fill:#563D7C;}
	.st21{fill:#F1E05A;}
	.st22{fill:#701516;}
	.st23{fill:#2B2728;stroke:#000000;stroke-miterlimit:10;}
	.st24{fill:#AF1F24;}
	.st25{fill:#FFE6EA;}
	.st26{fill:#020202;}
	.st27{fill:none;stroke:#020202;stroke-width:1.5077;stroke-miterlimit:10;}
</style>
<rect x="346.1" y="-1585.7" class="st0" width="69" height="69"/>
<rect x="425.2" y="-1585.7" class="st1" width="69" height="69"/>
<rect x="335" y="-1376.8" class="st0" width="1200" height="450.4"/>
<g>
	<polygon class="st2" points="873,-1705.8 873,-1716.8 844,-1716.8 844,-1708.8 782,-1708.8 782,-1718.8 730,-1718.8 730,-1780.8 
		792,-1780.8 792,-1770.8 829,-1770.8 829,-1778.8 892,-1778.8 892,-1767.8 925,-1767.8 925,-1779.8 978,-1779.8 978,-1785.8 
		1040,-1785.8 1040,-1776.8 1077,-1776.8 1077,-1781.8 1139,-1781.8 1139,-1719.8 1084,-1719.8 1084,-1714.8 1022,-1714.8 
		1022,-1723.8 987,-1723.8 987,-1716.8 935,-1716.8 935,-1705.8 	"/>
	<path d="M1039-1784.8v9h39v-5h60v60h-55v5h-60v-9h-37v7h-52v11h-60v-11h-31v8h-60v-10h-52v-60h60v10h39v-8h61v11h35v-12h53v-6H1039
		 M1041-1786.8h-2h-60h-2v2v4h-51h-2v2v10h-31v-9v-2h-2h-61h-2v2v6h-35v-8v-2h-2h-60h-2v2v60v2h2h50v8v2h2h60h2v-2v-6h27v9v2h2h60h2
		v-2v-9h50h2v-2v-5h33v7v2h2h60h2v-2v-3h53h2v-2v-60v-2h-2h-60h-2v2v3h-35v-7V-1786.8L1041-1786.8z"/>
</g>
<polygon class="st3" points="1044,-1210.8 1044,-1219.8 984,-1219.8 984,-1159.8 1028,-1159.8 1028,-1150.8 1088,-1150.8 
	1088,-1210.8 "/>
<rect x="932.4" y="-1214.8" class="st3" width="60" height="60"/>
<rect x="880.5" y="-1203.5" class="st3" width="60" height="60"/>
<rect x="725.9" y="-1215" class="st3" width="60" height="60"/>
<polygon class="st3" points="885,-1212.8 825,-1212.8 825,-1204.8 778,-1204.8 778,-1144.8 838,-1144.8 838,-1152.8 885,-1152.8 "/>
<rect x="1084.1" y="-1217.6" class="st3" width="60" height="60"/>
<text transform="matrix(1 0 0 1 735.1706 -1163.8813)" style="font-family:'LeagueSpartan-Bold'; font-size:52.0229px;">H</text>
<g>
	<text transform="matrix(1 0 0 1 786.6693 -1153.9449)" style="font-family:'LeagueSpartan-Bold'; font-size:52.0229px;">A</text>
</g>
<g>
	<text transform="matrix(1 0 0 1 834.2939 -1162.1284)" style="font-family:'LeagueSpartan-Bold'; font-size:52.0229px;">C</text>
</g>
<g>
	<text transform="matrix(1 0 0 1 890.2278 -1151.8921)" style="font-family:'LeagueSpartan-Bold'; font-size:52.0229px;">K</text>
</g>
<g>
	<text transform="matrix(1 0 0 1 946.9161 -1162.7788)" style="font-family:'LeagueSpartan-Bold'; font-size:52.0229px;">T</text>
</g>
<g>
	<text transform="matrix(1 0 0 1 1004.0839 -1170.0881)" style="font-family:'LeagueSpartan-Bold'; font-size:52.0229px;">I</text>
</g>
<g>
	<text transform="matrix(1 0 0 1 1036.5702 -1160.2046)" style="font-family:'LeagueSpartan-Bold'; font-size:52.0229px;">V</text>
</g>
<g>
	<text transform="matrix(1 0 0 1 1097.6016 -1167.2576)" style="font-family:'LeagueSpartan-Bold'; font-size:52.0229px;">E</text>
</g>
<path class="st4" d="M1013.7-1170.1"/>
<path class="st4" d="M992.5-1170.1"/>
<g>
	<path class="st2" d="M1099.3-1223.1c-0.3,0-0.6,0-0.9-0.1c-0.4-0.1-8.4-3-40.5-15.1c-13.2-5-25.6-9.6-26.5-9.9
		c-0.3-0.1-0.9-0.2-1.6-0.2c-2.9,0-7.8,1.1-8.8,4.2c-1,2.9-0.4,4-0.1,4.1l0.9,0.3l-0.3,0.9l-1.5,5.9l-12.4-3.5l2.2-6.4l0.9,0.3
		c0,0,0,0,0,0c0,0,0.1,0,0.1,0c0.8,0,1.5-0.9,1.9-2.6c0.6-2.7-0.8-5.5-0.9-5.5l-0.1-0.2l0-0.3c0-0.3,0.2-2.6,3-8.3
		c2.5-5.3,4.9-6.8,6.4-7.9c0.2-0.1,0.4-0.2,0.5-0.4c1-0.7,3.9-2.6,9.1-4.8c3-1.2,5.2-1.5,6.6-1.5c0.7,0,1.1,0.1,1.2,0.1l0.5,0.1
		l1.2,2.1l-1.1,0.4c0,0-4.7,1.6-9.3,4.4c-2.9,1.7-4.4,3.1-4.5,4.3c0,0.2-0.1,0.8,0.8,1.7c1.9,1.9,5.3,3.3,7.3,4.2
		c0.5,0.2,1,0.4,1.3,0.6c1.5,0.6,32.8,8.8,51.5,13.7c12.8,3.4,16.1,4.2,16.4,4.3l0.2,0.1c0.8,0.3,2.3,0.9,2.4,2.4
		c0.1,1.4-0.4,4.2-1,6.2c-0.6,2.2-1.7,4.4-2.3,5.3C1101.3-1223.5,1100.4-1223.1,1099.3-1223.1L1099.3-1223.1z"/>
	<path d="M1037.3-1273.1c0.6,0,1,0.1,1,0.1l0.4,0.7c0,0-4.7,1.6-9.4,4.4c-4.4,2.6-6.4,5-3.9,7.5c2.6,2.5,7.2,4.2,8.9,5
		s67.2,17.8,67.9,18.1c0.7,0.3,1.9,0.6,2,1.6c0.1,1.2-0.4,3.8-0.9,5.9c-0.6,2-1.6,4.2-2.2,5c-0.4,0.6-1.1,0.8-1.7,0.8
		c-0.3,0-0.5,0-0.7-0.1c-0.8-0.1-64.7-24.3-66.9-25c-0.4-0.1-1.1-0.2-2-0.2c-3.2,0-8.5,1.2-9.8,4.8c-1.6,4.7,0.5,5.4,0.5,5.4
		l-1.3,4.9l-10.4-2.9l1.5-4.5c0,0,0.2,0.1,0.4,0.1c0.7,0,2.1-0.4,2.8-3.4c0.7-3.1-1-6.2-1-6.2s0.1-2.3,2.9-8
		c2.7-5.7,5.1-6.8,6.6-7.8s4.4-2.8,8.9-4.7C1033.9-1272.9,1036.1-1273.1,1037.3-1273.1 M1037.3-1275.1c-1.5,0-3.9,0.3-7,1.6
		c-5.3,2.2-8.3,4.1-9.3,4.9c-0.2,0.1-0.3,0.2-0.5,0.3c-1.6,1.1-4.1,2.7-6.7,8.3c-2.8,5.8-3,8.3-3.1,8.7l0,0.6l0.3,0.5
		c0,0,1.3,2.5,0.8,4.8c-0.3,1.3-0.7,1.7-0.9,1.8l-1.7-0.5l-0.6,1.9l-1.5,4.5l-0.7,2l2,0.6l10.4,2.9l2,0.6l0.5-2l1.3-4.9l0.5-1.8
		l-1.4-0.5c-0.1-0.3-0.2-1.1,0.4-2.9c0.8-2.4,5.1-3.5,7.9-3.5c0.9,0,1.3,0.1,1.3,0.1c0.9,0.3,13.3,5,26.5,9.9
		c36.9,13.9,40.2,15.1,40.7,15.2c0.4,0.1,0.7,0.1,1.1,0.1c1.5,0,2.7-0.6,3.4-1.7c0.6-0.9,1.8-3.3,2.4-5.6c0.6-2,1.1-4.9,1-6.5
		c-0.1-2.2-2.2-2.9-3.1-3.3l-0.2-0.1c-0.3-0.1-1.6-0.5-16.4-4.3c-17.2-4.5-49.2-12.9-51.4-13.7c-0.3-0.2-0.8-0.4-1.3-0.6
		c-2-0.9-5.2-2.3-7-4c-0.2-0.2-0.5-0.6-0.5-0.8c0-0.2,0.3-1.3,4-3.5c4.5-2.7,9-4.3,9.1-4.3l2.3-0.8l-1.2-2.1l-0.4-0.7l-0.5-0.8
		l-0.9-0.2C1038.5-1275,1038-1275.1,1037.3-1275.1L1037.3-1275.1z"/>
</g>
<line class="st5" x1="1009.4" y1="-1243" x2="1022.5" y2="-1239.5"/>
<path class="st5" d="M1035-1255.8c0,0-0.1,2.2-0.6,4c-0.5,1.8-1.7,4-1.7,4"/>
<rect x="335" y="-926.4" class="st6" width="1200" height="1469"/>
<text transform="matrix(1 0 0 1 819.7861 -1026.7882)" class="st7" style="font-family:'LeagueSpartan-Bold'; font-size:12px; letter-spacing:1;">Search</text>
<rect x="766.1" y="-1055.8" class="st8" width="337.7" height="48"/>
<g>
	<circle class="st9" cx="795.9" cy="-1033.6" r="7.1"/>
	<line class="st10" x1="790.3" y1="-1028" x2="784.6" y2="-1022.3"/>
</g>
<rect x="798" y="-1333.3" transform="matrix(0.7071 -0.7071 0.7071 0.7071 1172.0863 184.5111)" class="st11" width="21.5" height="21.5"/>
<rect x="771.6" y="-1333.3" transform="matrix(0.7071 -0.7071 0.7071 0.7071 1164.3411 165.8125)" class="st11" width="21.5" height="21.5"/>
<rect x="790.2" y="-1314.7" transform="matrix(0.7071 -0.7071 0.7071 0.7071 1156.6261 184.4381)" class="st11" width="21.5" height="21.5"/>
<rect x="1263.5" y="-1274.3" transform="matrix(0.7071 -0.7071 0.7071 0.7071 1266.6987 530.9464)" class="st11" width="21.5" height="21.5"/>
<rect x="1248.3" y="-1304.7" transform="matrix(0.7071 -0.7071 0.7071 0.7071 1283.746 511.2908)" class="st11" width="21.5" height="21.5"/>
<rect x="1065.4" y="-1334.7" transform="matrix(0.7071 -0.7071 0.7071 0.7071 1251.3929 373.1354)" class="st11" width="21.5" height="21.5"/>
<rect x="1359.5" y="-1190.8" transform="matrix(0.7071 -0.7071 0.7071 0.7071 1235.7765 623.2382)" class="st11" width="21.5" height="21.5"/>
<rect x="1285.3" y="-1072.4" transform="matrix(0.7071 -0.7071 0.7071 0.7071 1130.3177 605.4879)" class="st11" width="21.5" height="21.5"/>
<rect x="1196" y="-1018.5" transform="matrix(0.7071 -0.7071 0.7071 0.7071 1066.0671 558.1456)" class="st11" width="21.5" height="21.5"/>
<rect x="456.1" y="-1060.9" transform="matrix(-0.7071 0.7071 -0.7071 -0.7071 54.4583 -2122.9158)" class="st11" width="21.5" height="21.5"/>
<rect x="430.1" y="-1076.1" transform="matrix(-0.7071 0.7071 -0.7071 -0.7071 -0.6766 -2130.4839)" class="st11" width="21.5" height="21.5"/>
<rect x="575.4" y="-1154.2" transform="matrix(-0.7071 0.7071 -0.7071 -0.7071 192.1732 -2366.4446)" class="st11" width="21.5" height="21.5"/>
<rect x="1268.7" y="-1101.8" transform="matrix(0.7071 -0.7071 0.7071 0.7071 1146.1986 585.1627)" class="st11" width="21.5" height="21.5"/>
<rect x="644.3" y="-1045.3" transform="matrix(0.7071 -0.7071 0.7071 0.7071 923.4369 160.1975)" class="st11" width="21.5" height="21.5"/>
<rect x="1442.8" y="-1040" transform="matrix(0.7071 -0.7071 0.7071 0.7071 1153.4977 726.3791)" class="st11" width="21.5" height="21.5"/>
<rect x="1436.4" y="-1053.8" transform="matrix(0.7071 -0.7071 0.7071 0.7071 1161.4287 717.7939)" class="st11" width="21.5" height="21.5"/>
<rect x="1428.1" y="-1299.5" transform="matrix(0.7071 -0.7071 0.7071 0.7071 1332.741 639.965)" class="st11" width="21.5" height="21.5"/>
<rect x="1412.9" y="-1026.5" transform="matrix(0.7071 -0.7071 0.7071 0.7071 1135.2513 709.1734)" class="st11" width="21.5" height="21.5"/>
<rect x="1472" y="-1064.1" transform="matrix(0.7071 -0.7071 0.7071 0.7071 1179.1404 739.9107)" class="st11" width="21.5" height="21.5"/>
<rect x="1374.7" y="-1197.2" transform="matrix(0.7071 -0.7071 0.7071 0.7071 1244.6982 632.1371)" class="st11" width="21.5" height="21.5"/>
<rect x="635.2" y="-1281.2" transform="matrix(0.7071 -0.7071 0.7071 0.7071 1087.5494 84.6638)" class="st11" width="21.5" height="21.5"/>
<rect x="591.2" y="-1311.6" transform="matrix(0.7071 -0.7071 0.7071 0.7071 1096.147 44.6088)" class="st11" width="21.5" height="21.5"/>
<rect x="513" y="-1183.5" transform="matrix(0.7071 -0.7071 0.7071 0.7071 982.6934 26.8617)" class="st11" width="21.5" height="21.5"/>
<rect x="494.4" y="-1211.5" transform="matrix(0.7071 -0.7071 0.7071 0.7071 997.0278 5.4971)" class="st11" width="21.5" height="21.5"/>
<rect x="410.3" y="-1294.6" transform="matrix(0.7071 -0.7071 0.7071 0.7071 1031.1166 -78.2636)" class="st11" width="21.5" height="21.5"/>
<rect x="395.1" y="-1294.6" transform="matrix(0.7071 -0.7071 0.7071 0.7071 1026.6638 -89.0136)" class="st11" width="21.5" height="21.5"/>
<rect x="479.2" y="-1172.5" transform="matrix(0.7071 -0.7071 0.7071 0.7071 964.9979 6.1699)" class="st11" width="21.5" height="21.5"/>
<rect x="559.4" y="-854.8" class="st2" width="751.1" height="291.6"/>
<rect x="718.7" y="-779.2" class="st12" width="91.2" height="34.4"/>
<text transform="matrix(1 0 0 1 716.1416 -793.7138)" class="st0" style="font-family:'LeagueSpartan-Bold'; font-size:18px;">Gabriel Reis</text>
<g>
	<defs>
		<circle id="SVGID_1_" cx="638.7" cy="-779.3" r="49.5"/>
	</defs>
	<clipPath id="SVGID_2_">
		<use xlink:href="#SVGID_1_"  style="overflow:visible;"/>
	</clipPath>
	<g id="eZOrvF.tif" class="st13">
		
			<image style="overflow:visible;" width="460" height="460" id="Layer_0_1_" xlink:href="4DB5DEAAEBAE897F.png"  transform="matrix(0.2152 0 0 0.2152 589.2167 -828.7938)">
		</image>
	</g>
</g>
<g>
	<text transform="matrix(1 0 0 1 757.9432 -757.7818)" class="st14" style="font-family:'LeagueSpartan-Bold'; font-size:13px;">greis</text>
</g>
<text transform="matrix(1 0 0 1 731.9728 -754.765)" class="st14" style="font-family:'FontAwesome'; font-size:20px;"></text>
<rect x="717.2" y="-679.8" style="fill:none;" width="33.8" height="16.6"/>
<text transform="matrix(1 0 0 1 717.1784 -664.3329)" class="st6" style="font-family:'github-octicons'; font-size:19px;"></text>
<g>
	<rect x="742.2" y="-677.8" style="fill:none;" width="280.8" height="17"/>
	<text transform="matrix(1 0 0 1 742.1544 -665.7466)"><tspan x="0" y="0" class="st6" style="font-family:'LeagueSpartan-Bold'; font-size:14px;">Pull request for </tspan><tspan x="121.9" y="0" class="st0" style="font-family:'LeagueSpartan-Bold'; font-size:14px;">telly/TLYShyNavBar</tspan></text>
</g>
<g>
	<rect x="742.2" y="-655" style="fill:none;" width="390" height="17"/>
	<text transform="matrix(1 0 0 1 742.1544 -644.7961)" class="st6" style="font-family:'WorkSans-Light'; font-size:14px;">Expand navBar if scrollView&apos;s window is visible</text>
</g>
<g>
	<rect x="742.2" y="-628.2" style="fill:none;" width="390" height="17"/>
	<text transform="matrix(1 0 0 1 742.1544 -617.9752)" class="st15" style="font-family:'WorkSans-ExtraLight'; font-size:14px;">Apr 27, 2016 11:40 AM</text>
</g>
<text transform="matrix(1 0 0 1 1024.9124 -667.1461)"><tspan x="0" y="0" class="st6" style="font-family:'LeagueSpartan-Bold'; font-size:12px;">(</tspan><tspan x="5.8" y="0" class="st6" style="font-family:'github-octicons'; font-size:14px; letter-spacing:1;"></tspan><tspan x="19.9" y="0" class="st6" style="font-family:'LeagueSpartan-Bold'; font-size:12px; letter-spacing:1;">4</tspan><tspan x="29.1" y="0" class="st6" style="font-family:'LeagueSpartan-Bold'; font-size:12px;">)</tspan></text>
<rect x="559.4" y="-490.8" class="st2" width="751.1" height="696.7"/>
<rect x="718.7" y="-416.2" class="st16" width="109.5" height="34.4"/>
<text transform="matrix(1 0 0 1 716.1416 -430.7431)" class="st0" style="font-family:'LeagueSpartan-Bold'; font-size:18px;">Dorian Karter</text>
<g>
	<defs>
		<circle id="SVGID_3_" cx="638.7" cy="-415.3" r="49.5"/>
	</defs>
	<clipPath id="SVGID_4_">
		<use xlink:href="#SVGID_3_"  style="overflow:visible;"/>
	</clipPath>
	<g id="svOERB.tif" class="st17">
		
			<image style="overflow:visible;" width="460" height="460" id="Layer_0_3_" xlink:href="4DB5DEAAEBAE897D.png"  transform="matrix(0.2238 0 0 0.2238 586.8136 -466.7927)">
		</image>
	</g>
</g>
<g>
	<text transform="matrix(1 0 0 1 757.9432 -394.8111)" class="st14" style="font-family:'LeagueSpartan-Bold'; font-size:13px;">dkarter</text>
</g>
<text transform="matrix(1 0 0 1 731.9728 -391.7943)" class="st14" style="font-family:'FontAwesome'; font-size:20px;"></text>
<rect x="717.2" y="-316.8" style="fill:none;" width="33.8" height="16.6"/>
<text transform="matrix(1 0 0 1 717.1784 -301.3622)" class="st6" style="font-family:'github-octicons'; font-size:19px;"></text>
<g>
	<rect x="742.2" y="-314.8" style="fill:none;" width="183.2" height="17"/>
	<text transform="matrix(1 0 0 1 742.1544 -302.7758)"><tspan x="0" y="0" class="st6" style="font-family:'LeagueSpartan-Bold'; font-size:14px;">Pushed to </tspan><tspan x="79.3" y="0" class="st0" style="font-family:'LeagueSpartan-Bold'; font-size:14px;">dkarter/blog</tspan></text>
</g>
<g>
	<rect x="742.2" y="-269" style="fill:none;" width="390" height="17"/>
	<text transform="matrix(1 0 0 1 742.1544 -258.807)" class="st6" style="font-family:'WorkSans-Light'; font-size:14px;">Post: git shallow clone</text>
</g>
<g>
	<rect x="742.2" y="-242.2" style="fill:none;" width="390" height="17"/>
	<text transform="matrix(1 0 0 1 742.1544 -231.9861)" class="st15" style="font-family:'WorkSans-ExtraLight'; font-size:14px;">Apr 26, 2016 9:45 Am</text>
</g>
<rect x="717.2" y="-140.8" style="fill:none;" width="33.8" height="16.6"/>
<text transform="matrix(1 0 0 1 717.1784 -125.2959)" class="st6" style="font-family:'github-octicons'; font-size:19px;"></text>
<g>
	<rect x="742.2" y="-138.7" style="fill:none;" width="390" height="17"/>
	<text transform="matrix(1 0 0 1 742.1544 -126.7095)"><tspan x="0" y="0" class="st6" style="font-family:'LeagueSpartan-Bold'; font-size:14px;">Pushed to</tspan><tspan x="75" y="0" class="st0" style="font-family:'LeagueSpartan-Bold'; font-size:14px;"> dkarter/blog</tspan></text>
</g>
<g>
	<rect x="742.2" y="-67.9" style="fill:none;" width="390" height="17"/>
	<text transform="matrix(1 0 0 1 742.1544 -57.7209)" class="st6" style="font-family:'WorkSans-Light'; font-size:14px;">Post: kill listening processes on a port</text>
</g>
<g>
	<rect x="742.2" y="-95.5" style="fill:none;" width="390" height="17"/>
	<text transform="matrix(1 0 0 1 742.1544 -86.7598)" class="st6" style="font-family:'WorkSans-Medium'; font-size:12px;">60% Ruby, 25% JavaScript, 15% HTML</text>
</g>
<g>
	<rect x="742.2" y="-41.1" style="fill:none;" width="390" height="17"/>
	<text transform="matrix(1 0 0 1 742.1544 -30.8999)" class="st15" style="font-family:'WorkSans-ExtraLight'; font-size:14px;">Apr 25, 2016 10:25 pm</text>
</g>
<line class="st18" x1="560.2" y1="-185.8" x2="1309.8" y2="-185.8"/>
<rect x="717.2" y="59.6" style="fill:none;" width="33.8" height="16.6"/>
<text transform="matrix(1 0 0 1 717.1784 75.0904)" class="st6" style="font-family:'github-octicons'; font-size:19px;"></text>
<g>
	<rect x="742.2" y="61.6" style="fill:none;" width="390" height="17"/>
	<text transform="matrix(1 0 0 1 742.1544 73.6768)"><tspan x="0" y="0" class="st6" style="font-family:'LeagueSpartan-Bold'; font-size:14px;">Pushed to</tspan><tspan x="75" y="0" class="st0" style="font-family:'LeagueSpartan-Bold'; font-size:14px;"> dkarter/dotfiles</tspan></text>
</g>
<g>
	<rect x="742.2" y="110.4" style="fill:none;" width="390" height="17"/>
	<text transform="matrix(1 0 0 1 742.1544 120.6478)" class="st6" style="font-family:'WorkSans-Light'; font-size:14px;">Move local aliases load to bottom</text>
</g>
<g>
	<rect x="742.2" y="137.2" style="fill:none;" width="390" height="17"/>
	<text transform="matrix(1 0 0 1 742.1544 147.4688)" class="st15" style="font-family:'WorkSans-ExtraLight'; font-size:14px;">Apr 25, 2016 8:25 pm</text>
</g>
<line class="st18" x1="560.2" y1="14.5" x2="1309.8" y2="14.5"/>
<g>
	<rect x="742.9" y="-288.4" class="st19" width="182.7" height="4.8"/>
	<rect x="925.7" y="-288.4" class="st20" width="55.5" height="4.8"/>
	<rect x="981.2" y="-288.4" class="st21" width="30.1" height="4.8"/>
	<rect x="1011.3" y="-288.4" class="st22" width="11.7" height="4.8"/>
</g>
<g>
	<rect x="742.9" y="-109.8" class="st20" width="182.7" height="4.8"/>
	<rect x="925.7" y="-109.8" class="st21" width="55.5" height="4.8"/>
	<rect x="981.2" y="-109.8" class="st21" width="30.1" height="4.8"/>
	<rect x="1011.3" y="-109.8" class="st19" width="11.7" height="4.8"/>
</g>
<rect x="742.9" y="89.9" class="st20" width="280.1" height="4.8"/>
<rect x="679.6" y="528.4" transform="matrix(0.7071 -0.7071 0.7071 0.7071 -179.0507 646.0768)" class="st23" width="21.5" height="21.5"/>
<rect x="694.8" y="482.6" transform="matrix(0.7071 -0.7071 0.7071 0.7071 -142.2009 643.4076)" class="st23" width="21.5" height="21.5"/>
<rect x="758" y="498.4" transform="matrix(0.7071 -0.7071 0.7071 0.7071 -134.8806 692.713)" class="st23" width="21.5" height="21.5"/>
<rect x="495.3" y="517.8" transform="matrix(0.7071 -0.7071 0.7071 0.7071 -225.5288 512.6628)" class="st23" width="21.5" height="21.5"/>
<rect x="412.6" y="528.4" transform="matrix(0.7071 -0.7071 0.7071 0.7071 -257.2548 457.2754)" class="st23" width="21.5" height="21.5"/>
<rect x="712" y="487.2" transform="matrix(0.7071 -0.7071 0.7071 0.7071 -140.4075 656.9373)" class="st23" width="21.5" height="21.5"/>
<rect x="630.9" y="507.8" transform="matrix(0.7071 -0.7071 0.7071 0.7071 -178.7269 605.6096)" class="st23" width="21.5" height="21.5"/>
<rect x="575.6" y="525.7" transform="matrix(0.7071 -0.7071 0.7071 0.7071 -207.5775 571.7686)" class="st23" width="21.5" height="21.5"/>
<rect x="572.5" y="540.9" transform="matrix(0.7071 -0.7071 0.7071 0.7071 -219.2522 573.9891)" class="st23" width="21.5" height="21.5"/>
<rect x="712" y="465.4" transform="matrix(0.7071 -0.7071 0.7071 0.7071 -124.9725 650.5439)" class="st23" width="21.5" height="21.5"/>
<rect x="814.1" y="482" transform="matrix(0.7071 -0.7071 0.7071 0.7071 -106.8418 727.5468)" class="st23" width="21.5" height="21.5"/>
<rect x="965.2" y="487.2" transform="matrix(0.7071 -0.7071 0.7071 0.7071 -66.2448 835.9818)" class="st23" width="21.5" height="21.5"/>
<rect x="821.2" y="499.7" transform="matrix(0.7071 -0.7071 0.7071 0.7071 -117.2794 737.8184)" class="st23" width="21.5" height="21.5"/>
<rect x="1200.3" y="484.5" transform="matrix(0.7071 -0.7071 0.7071 0.7071 4.49 1001.3904)" class="st23" width="21.5" height="21.5"/>
<rect x="1058.4" y="450.2" transform="matrix(0.7071 -0.7071 0.7071 0.7071 -12.7723 891.0136)" class="st23" width="21.5" height="21.5"/>
<rect x="893.7" y="528.4" transform="matrix(0.7071 -0.7071 0.7071 0.7071 -116.3466 797.4581)" class="st23" width="21.5" height="21.5"/>
<rect x="1031.1" y="535.6" transform="matrix(0.7071 -0.7071 0.7071 0.7071 -81.2005 896.7138)" class="st23" width="21.5" height="21.5"/>
<rect x="840.1" y="420.1" transform="matrix(0.7071 -0.7071 0.7071 0.7071 -55.4109 727.8414)" class="st23" width="21.5" height="21.5"/>
<rect x="910.3" y="476.3" transform="matrix(0.7071 -0.7071 0.7071 0.7071 -74.6438 793.9415)" class="st23" width="21.5" height="21.5"/>
<rect x="906" y="465.4" transform="matrix(0.7071 -0.7071 0.7071 0.7071 -68.1499 787.7258)" class="st23" width="21.5" height="21.5"/>
<rect x="1366.5" y="548.2" transform="matrix(0.7071 -0.7071 0.7071 0.7071 8.132 1137.5817)" class="st23" width="21.5" height="21.5"/>
<rect x="1350.2" y="484.5" transform="matrix(0.7071 -0.7071 0.7071 0.7071 48.4044 1107.4091)" class="st23" width="21.5" height="21.5"/>
<rect x="590.7" y="458.5" transform="matrix(0.7071 -0.7071 0.7071 0.7071 -155.6929 562.72)" class="st23" width="21.5" height="21.5"/>
<rect x="542.2" y="484.6" transform="matrix(0.7071 -0.7071 0.7071 0.7071 -188.3194 536.1087)" class="st23" width="21.5" height="21.5"/>
<rect x="1192.2" y="469.3" transform="matrix(-0.7071 -0.7071 0.7071 -0.7071 1714.0675 1670.1345)" class="st23" width="21.5" height="21.5"/>
<rect x="1185.1" y="482" transform="matrix(-0.7071 -0.7071 0.7071 -0.7071 1692.9852 1686.7428)" class="st23" width="21.5" height="21.5"/>
<rect x="927.5" y="459.1" transform="matrix(-0.7071 -0.7071 0.7071 -0.7071 1269.4943 1465.5475)" class="st23" width="21.5" height="21.5"/>
<rect x="1102.4" y="491.3" transform="matrix(-0.7071 -0.7071 0.7071 -0.7071 1545.3304 1644.0999)" class="st23" width="21.5" height="21.5"/>
<rect x="1268.2" y="520.4" transform="matrix(-0.7071 -0.7071 0.7071 -0.7071 1807.6884 1811.1123)" class="st23" width="21.5" height="21.5"/>
<rect x="1446.1" y="528.4" transform="matrix(-0.7071 -0.7071 0.7071 -0.7071 2105.6729 1950.5414)" class="st23" width="21.5" height="21.5"/>
<rect x="1122.1" y="487.1" transform="matrix(-0.7071 -0.7071 0.7071 -0.7071 1581.8911 1650.9442)" class="st23" width="21.5" height="21.5"/>
<rect x="1084.6" y="520.4" transform="matrix(-0.7071 -0.7071 0.7071 -0.7071 1494.3191 1681.3105)" class="st23" width="21.5" height="21.5"/>
<rect x="1169.9" y="517.8" transform="matrix(-0.7071 -0.7071 0.7071 -0.7071 1641.6996 1737.1517)" class="st23" width="21.5" height="21.5"/>
<rect x="1154.7" y="439" transform="matrix(-0.7071 -0.7071 0.7071 -0.7071 1671.5797 1591.8055)" class="st23" width="21.5" height="21.5"/>
<rect x="990.2" y="396.4" transform="matrix(-0.7071 -0.7071 0.7071 -0.7071 1420.7896 1402.8789)" class="st23" width="21.5" height="21.5"/>
<rect x="1237.6" y="476.3" transform="matrix(-0.7071 -0.7071 0.7071 -0.7071 1786.6586 1714.1404)" class="st23" width="21.5" height="21.5"/>
<g>
	<path class="st2" d="M896.2,324.2H890v-5.7h-2.3V332h2.3v-5.7h6.3v5.7h2.3v-13.6h-2.3V324.2z M908.3,326c0-1.8-1.1-3.4-3.9-3.4
		c-2.2,0-3.7,1.4-3.8,3l2,0.4c0.1-0.9,0.7-1.6,1.9-1.6c1.2,0,1.7,0.6,1.7,1.4c0,0.3-0.1,0.6-0.7,0.7l-2.3,0.4
		c-1.6,0.2-2.7,1.1-2.7,2.7c0,1.4,1.2,2.7,3.1,2.7c1.5,0,2.4-0.7,2.8-1.4c0,0.7,0.1,1.1,0.1,1.2h2c0-0.1-0.1-0.6-0.1-1.5V326z
		 M906.1,328.2c0,1.8-1,2.4-2.3,2.4c-0.9,0-1.3-0.6-1.3-1.2c0-0.7,0.5-1.1,1.2-1.2l2.4-0.4V328.2z M914.4,326.5l-1.4-0.3
		c-0.6-0.1-0.9-0.5-0.9-1c0-0.6,0.5-1.1,1.3-1.1c1.2,0,1.6,0.8,1.7,1.4l1.8-0.5c-0.2-0.9-1-2.6-3.5-2.6c-1.9,0-3.4,1.4-3.4,3
		c0,1.3,0.8,2.3,2.5,2.7l1.4,0.3c0.7,0.2,1.1,0.5,1.1,1c0,0.6-0.5,1.1-1.4,1.1c-1.2,0-1.8-0.7-1.9-1.6l-1.9,0.5
		c0.1,1,1.1,2.8,3.8,2.8c2.3,0,3.5-1.5,3.5-2.9C917.1,328,916.2,326.9,914.4,326.5z M923.9,322.5c-1,0-2,0.3-2.6,1.2v-5.3h-2.2V332
		h2.2v-5.4c0-1.2,0.7-2.1,1.9-2.1c1.4,0,1.9,0.9,1.9,2v5.4h2.2v-5.8C927.3,324.2,926.2,322.5,923.9,322.5z M931.6,324.2v-1.5h-2.1
		v9.3h2.2v-4.5c0-1.7,0.8-2.7,2.5-2.7c0.2,0,0.5,0,0.7,0.1v-2.2c-0.1,0-0.3-0.1-0.6-0.1C933.1,322.6,932.1,323.2,931.6,324.2z
		 M940.6,322.6c-2.7,0-4.7,2-4.7,4.8c0,2.8,2,4.8,4.7,4.8c2.7,0,4.7-2,4.7-4.8C945.4,324.6,943.4,322.6,940.6,322.6z M940.6,330.3
		c-1.3,0-2.5-1-2.5-2.9c0-1.9,1.2-2.9,2.5-2.9c1.3,0,2.5,1,2.5,2.9C943.2,329.3,942,330.3,940.6,330.3z M951.7,330.3
		c-1.4,0-2.5-1-2.5-2.9s1.2-2.8,2.5-2.8c1.4,0,2,0.9,2.2,1.7l1.9-0.7c-0.4-1.5-1.7-3-4.2-3c-2.6,0-4.7,2-4.7,4.8
		c0,2.8,2,4.8,4.7,4.8c2.4,0,3.8-1.6,4.2-3l-1.9-0.7C953.8,329.3,953.2,330.3,951.7,330.3z M963.6,322.7l-3.7,3.9v-8.1h-2.2V332h2.2
		v-2.6l1.1-1.2l2.7,3.8h2.7l-3.8-5.3l3.9-4H963.6z M971.1,322.6c-2.3,0-4.4,1.9-4.4,4.8c0,3.1,2.2,4.9,4.7,4.9
		c2.2,0,3.6-1.3,4.1-2.9l-1.8-0.6c-0.3,0.9-1,1.6-2.3,1.6c-1.3,0-2.4-1-2.5-2.4h6.7c0,0,0.1-0.3,0.1-0.7
		C975.6,324.5,973.9,322.6,971.1,322.6z M968.9,326.4c0.1-1,0.9-2,2.2-2c1.5,0,2.2,1,2.2,2H968.9z M981.5,330.2
		c-0.8,0-1.2-0.3-1.2-1.2v-4.3h1.9v-1.9h-1.9V320h-2v1.4c0,0.8-0.4,1.4-1.4,1.4h-0.5v1.9h1.7v4.6c0,1.7,1.1,2.7,2.8,2.7
		c0.8,0,1.2-0.2,1.3-0.2v-1.8C982.2,330.1,981.9,330.2,981.5,330.2z"/>
	<g>
		<path class="st24" d="M927.3,290.2l-4.1,5l3.6,2l-3.4,4.2l4.1,2.4l-1.3,6.7l6.5-1.5l2.4,4.1l4.2-3.5l2.2,3.9l5-4.2v-19.1
			L927.3,290.2z"/>
		<path class="st2" d="M933.8,297.7l-4.1,4.1l1.5,1.5l4.1-4.1L933.8,297.7z M933.2,305.2l1.5,1.5l4.1-4.1l-1.5-1.5L933.2,305.2z
			 M932.3,294.1v2.1h8.2v8.2h2.1v-10.3L932.3,294.1z"/>
	</g>
</g>
<g>
	<path class="st2" d="M8.5,34H2.3v-5.7H0v13.6h2.3v-5.7h6.3v5.7h2.3V28.2H8.5V34z M20.6,35.8c0-1.8-1.1-3.4-3.9-3.4
		c-2.2,0-3.7,1.4-3.8,3l2,0.4c0.1-0.9,0.7-1.6,1.9-1.6c1.2,0,1.7,0.6,1.7,1.4c0,0.3-0.1,0.6-0.7,0.7l-2.3,0.4
		c-1.6,0.2-2.7,1.1-2.7,2.7c0,1.4,1.2,2.7,3.1,2.7c1.5,0,2.4-0.7,2.8-1.4c0,0.7,0.1,1.1,0.1,1.2h2c0-0.1-0.1-0.6-0.1-1.5V35.8z
		 M18.4,38c0,1.8-1,2.4-2.3,2.4c-0.9,0-1.3-0.6-1.3-1.2c0-0.7,0.5-1.1,1.2-1.2l2.4-0.4V38z M26.7,36.4l-1.4-0.3
		c-0.6-0.1-0.9-0.5-0.9-1c0-0.6,0.5-1.1,1.3-1.1c1.2,0,1.6,0.8,1.7,1.4l1.8-0.5c-0.2-0.9-1-2.6-3.5-2.6c-1.9,0-3.4,1.4-3.4,3
		c0,1.3,0.8,2.3,2.5,2.7l1.4,0.3c0.7,0.2,1.1,0.5,1.1,1c0,0.6-0.5,1.1-1.4,1.1c-1.2,0-1.8-0.7-1.9-1.6l-1.9,0.5
		c0.1,1,1.1,2.8,3.8,2.8c2.3,0,3.5-1.5,3.5-2.9C29.4,37.8,28.5,36.7,26.7,36.4z M36.2,32.4c-1,0-2,0.3-2.6,1.2v-5.3h-2.2v13.6h2.2
		v-5.4c0-1.2,0.7-2.1,1.9-2.1c1.4,0,1.9,0.9,1.9,2v5.4h2.2V36C39.6,34,38.5,32.4,36.2,32.4z M44,34v-1.5h-2.1v9.3H44v-4.5
		c0-1.7,0.8-2.7,2.5-2.7c0.2,0,0.5,0,0.7,0.1v-2.2c-0.1,0-0.3-0.1-0.6-0.1C45.4,32.4,44.4,33,44,34z M53,32.4c-2.7,0-4.7,2-4.7,4.8
		c0,2.8,2,4.8,4.7,4.8c2.7,0,4.7-2,4.7-4.8C57.7,34.5,55.7,32.4,53,32.4z M53,40.1c-1.3,0-2.5-1-2.5-2.9c0-1.9,1.2-2.9,2.5-2.9
		c1.3,0,2.5,1,2.5,2.9C55.5,39.2,54.3,40.1,53,40.1z M64,40.1c-1.4,0-2.5-1-2.5-2.9c0-1.8,1.2-2.8,2.5-2.8c1.4,0,2,0.9,2.2,1.7
		l1.9-0.7c-0.4-1.5-1.7-3-4.2-3c-2.6,0-4.7,2-4.7,4.8c0,2.8,2,4.8,4.7,4.8c2.4,0,3.8-1.6,4.2-3l-1.9-0.7
		C66.1,39.1,65.5,40.1,64,40.1z M75.9,32.5l-3.7,3.9v-8.1H70v13.6h2.2v-2.6l1.1-1.2l2.7,3.8h2.7l-3.8-5.3l3.9-4H75.9z M83.4,32.4
		c-2.3,0-4.4,1.9-4.4,4.8c0,3.1,2.2,4.9,4.7,4.9c2.2,0,3.6-1.3,4.1-2.9l-1.8-0.6c-0.3,0.9-1,1.6-2.3,1.6c-1.3,0-2.4-1-2.5-2.4h6.7
		c0,0,0.1-0.3,0.1-0.7C87.9,34.3,86.2,32.4,83.4,32.4z M81.2,36.3c0.1-1,0.9-2,2.2-2c1.5,0,2.2,1,2.2,2H81.2z M93.9,40
		c-0.8,0-1.2-0.3-1.2-1.2v-4.3h1.9v-1.9h-1.9v-2.8h-2v1.4c0,0.8-0.4,1.4-1.4,1.4h-0.5v1.9h1.7v4.6c0,1.7,1.1,2.7,2.8,2.7
		c0.8,0,1.2-0.2,1.3-0.2v-1.8C94.5,39.9,94.2,40,93.9,40z"/>
	<g>
		<path class="st24" d="M39.7,0l-4.1,5l3.6,2l-3.4,4.2l4.1,2.4l-1.3,6.7l6.5-1.5l2.4,4.1l4.2-3.5l2.2,3.9l5-4.2V0L39.7,0z"/>
		<path class="st2" d="M46.1,7.6L42,11.7l1.5,1.5l4.1-4.1L46.1,7.6z M45.5,15l1.5,1.5l4.1-4.1l-1.5-1.5L45.5,15z M44.6,3.9V6h8.2
			v8.2h2.1V3.9L44.6,3.9z"/>
	</g>
</g>
<g>
	
		<text transform="matrix(1 0 0 1 821.0385 -1103.8138)" class="st25" style="font-family:'LeagueSpartan-Bold'; font-size:16px; letter-spacing:2;">A Hashrocket Project</text>
</g>
<g>
	<path class="st24" d="M792.5-1120.5l-3.8,4.6l3.4,1.9l-3.1,3.9l3.8,2.2l-1.2,6.2l6-1.4l2.2,3.8l3.9-3.2l2,3.6l4.7-3.9v-17.7
		L792.5-1120.5z"/>
	<path class="st2" d="M798.6-1113.5l-3.8,3.8l1.4,1.4l3.8-3.8L798.6-1113.5z M798-1106.6l1.4,1.4l3.8-3.8l-1.4-1.4L798-1106.6z
		 M797.1-1116.9v2h7.6v7.6h2v-9.6L797.1-1116.9z"/>
</g>
<path class="st5" d="M1092.4-1225.4c0,0,1.7-2.6,2.9-7.3c1.2-4.7,1-7.3,1-7.3"/>
<path class="st26" d="M1020-1240.7l3.8-6.7l7.5-1.2c0,0,2.2,0.3,2.6-3.2c0.4-3.6,0-5.1,0-5.1s-9.5-3.5-8.6-5.7s14.5-9.1,14.5-9.1
	l-0.7-2.5c0,0-6.5,0.5-12.7,3.7c-6.1,3.2-8.7,4.4-10.1,7.1c-1.3,2.7-5,12.1-5,12.1s1.3,1.3,1.2,4.1c-0.1,2.8-1.2,4.8-1.2,4.8
	L1020-1240.7z"/>
<path class="st2" d="M1013.9-1250.5c0,0,0.1-3.2,3.1-9.2c3-6.1,7.6-7.4,7.6-7.4l-0.9,1.7c0,0-3.8,2.5-5.3,6.2
	c-1.1,2.5-2.8,9.3-2.8,9.3L1013.9-1250.5z"/>
<polygon class="st3" points="-24,-1219.8 -24,-1228.8 -84,-1228.8 -84,-1168.8 -40,-1168.8 -40,-1159.8 20,-1159.8 20,-1219.8 "/>
<rect x="-135.1" y="-1223.9" class="st3" width="60" height="60"/>
<rect x="-187" y="-1212.5" class="st3" width="60" height="60"/>
<rect x="-341.6" y="-1224" class="st3" width="60" height="60"/>
<polygon class="st3" points="-183,-1221.8 -243,-1221.8 -243,-1213.8 -290,-1213.8 -290,-1153.8 -230,-1153.8 -230,-1161.8 
	-183,-1161.8 "/>
<rect x="16.6" y="-1226.6" class="st3" width="60" height="60"/>
<text transform="matrix(1 0 0 1 -332.3294 -1172.938)" style="font-family:'LeagueSpartan-Bold'; font-size:52.0229px;">H</text>
<g>
	<text transform="matrix(1 0 0 1 -280.8307 -1163.0017)" style="font-family:'LeagueSpartan-Bold'; font-size:52.0229px;">A</text>
</g>
<g>
	<text transform="matrix(1 0 0 1 -233.2061 -1171.1851)" style="font-family:'LeagueSpartan-Bold'; font-size:52.0229px;">C</text>
</g>
<g>
	<text transform="matrix(1 0 0 1 -177.2722 -1160.9487)" style="font-family:'LeagueSpartan-Bold'; font-size:52.0229px;">K</text>
</g>
<g>
	<text transform="matrix(1 0 0 1 -120.5839 -1172.8363)" style="font-family:'LeagueSpartan-Bold'; font-size:52.0229px;">T</text>
</g>
<g>
	<text transform="matrix(1 0 0 1 -63.4161 -1179.1449)" style="font-family:'LeagueSpartan-Bold'; font-size:52.0229px;">I</text>
</g>
<g>
	<text transform="matrix(1 0 0 1 -30.9298 -1169.2612)" style="font-family:'LeagueSpartan-Bold'; font-size:52.0229px;">V</text>
</g>
<g>
	<text transform="matrix(1 0 0 1 30.1015 -1176.3143)" style="font-family:'LeagueSpartan-Bold'; font-size:52.0229px;">E</text>
</g>
<path class="st4" d="M-53.8-1179.1"/>
<path class="st4" d="M-75-1179.1"/>
<g>
	<path class="st2" d="M31.8-1232.1c-0.3,0-0.6,0-0.9-0.1c-0.4-0.1-8.4-3-40.5-15.1c-13.2-5-25.6-9.6-26.5-9.9
		c-0.3-0.1-0.9-0.2-1.6-0.2c-2.9,0-7.8,1.1-8.8,4.2c-1,2.9-0.4,4-0.1,4.1l0.9,0.3l-0.3,0.9l-1.5,5.9l-12.4-3.5l2.2-6.4l0.9,0.3
		c0,0,0,0,0,0c0,0,0.1,0,0.1,0c0.8,0,1.5-0.9,1.9-2.6c0.6-2.7-0.8-5.5-0.9-5.5l-0.1-0.2l0-0.3c0-0.3,0.2-2.6,3-8.3
		c2.5-5.3,4.9-6.8,6.4-7.9c0.2-0.1,0.4-0.2,0.5-0.4c1-0.7,3.9-2.6,9.1-4.8c3-1.2,5.2-1.5,6.6-1.5c0.7,0,1.1,0.1,1.2,0.1l0.5,0.1
		l1.2,2.1l-1.1,0.4c0,0-4.7,1.6-9.3,4.4c-2.9,1.7-4.4,3.1-4.5,4.3c0,0.2-0.1,0.8,0.8,1.7c1.9,1.9,5.3,3.3,7.3,4.2
		c0.5,0.2,1,0.4,1.3,0.6c1.5,0.6,32.8,8.8,51.5,13.7c12.8,3.4,16.1,4.2,16.4,4.3l0.2,0.1c0.8,0.3,2.3,0.9,2.4,2.4
		c0.1,1.4-0.4,4.2-1,6.2c-0.6,2.2-1.7,4.4-2.3,5.3C33.8-1232.5,32.9-1232.1,31.8-1232.1C31.8-1232.1,31.8-1232.1,31.8-1232.1z"/>
	<path d="M-30.2-1282.2c0.6,0,1,0.1,1,0.1l0.4,0.7c0,0-4.7,1.6-9.4,4.4c-4.4,2.6-6.4,5-3.9,7.5c2.6,2.5,7.2,4.2,8.9,5
		c1.7,0.8,67.2,17.8,67.9,18.1c0.7,0.3,1.9,0.6,2,1.6c0.1,1.2-0.4,3.8-0.9,5.9c-0.6,2-1.6,4.2-2.2,5c-0.4,0.6-1.1,0.8-1.7,0.8
		c-0.3,0-0.5,0-0.7-0.1c-0.8-0.1-64.7-24.3-66.9-25c-0.4-0.1-1.1-0.2-2-0.2c-3.2,0-8.5,1.2-9.8,4.8c-1.6,4.7,0.5,5.4,0.5,5.4
		l-1.3,4.9l-10.4-2.9l1.5-4.5c0,0,0.2,0.1,0.4,0.1c0.7,0,2.1-0.4,2.8-3.4c0.7-3.1-1-6.2-1-6.2s0.1-2.3,2.9-8
		c2.7-5.7,5.1-6.8,6.6-7.8c1.5-1.1,4.4-2.8,8.9-4.7C-33.6-1281.9-31.4-1282.2-30.2-1282.2 M-30.2-1284.2c-1.5,0-3.9,0.3-7,1.6
		c-5.3,2.2-8.3,4.1-9.3,4.9c-0.2,0.1-0.3,0.2-0.5,0.3c-1.6,1.1-4.1,2.7-6.7,8.3c-2.8,5.8-3,8.3-3.1,8.7l0,0.6l0.3,0.5
		c0,0,1.3,2.5,0.8,4.8c-0.3,1.3-0.7,1.7-0.9,1.8l-1.7-0.5l-0.6,1.9l-1.5,4.5l-0.7,2l2,0.6l10.4,2.9l2,0.6l0.5-2l1.3-4.9l0.5-1.8
		l-1.4-0.5c-0.1-0.3-0.2-1.1,0.4-2.9c0.8-2.4,5.1-3.5,7.9-3.5c0.9,0,1.3,0.1,1.3,0.1c0.9,0.3,13.3,5,26.5,9.9
		c36.9,13.9,40.2,15.1,40.7,15.2c0.4,0.1,0.7,0.1,1.1,0.1c1.5,0,2.7-0.6,3.4-1.7c0.6-0.9,1.8-3.3,2.4-5.6c0.6-2,1.1-4.9,1-6.5
		c-0.1-2.2-2.2-2.9-3.1-3.3l-0.2-0.1c-0.3-0.1-1.6-0.5-16.4-4.3c-17.2-4.5-49.2-12.9-51.4-13.7c-0.3-0.2-0.8-0.4-1.3-0.6
		c-2-0.9-5.2-2.3-7-4c-0.2-0.2-0.5-0.6-0.5-0.8c0-0.2,0.3-1.3,4-3.5c4.5-2.7,9-4.3,9.1-4.3l2.3-0.8l-1.2-2.1l-0.4-0.7l-0.5-0.8
		l-0.9-0.2C-29-1284.1-29.5-1284.2-30.2-1284.2L-30.2-1284.2z"/>
</g>
<line class="st5" x1="-58.1" y1="-1252" x2="-45" y2="-1248.5"/>
<path class="st5" d="M-32.5-1264.8c0,0-0.1,2.2-0.6,4c-0.5,1.8-1.7,4-1.7,4"/>
<path class="st5" d="M24.9-1234.4c0,0,1.7-2.6,2.9-7.3s1-7.3,1-7.3"/>
<path class="st26" d="M-47.5-1249.7l3.8-6.7l7.5-1.2c0,0,2.2,0.3,2.6-3.2c0.4-3.6,0-5.1,0-5.1s-9.5-3.5-8.6-5.7
	c0.9-2.2,14.5-9.1,14.5-9.1l-0.7-2.5c0,0-6.5,0.5-12.7,3.7c-6.1,3.2-8.7,4.4-10.1,7.1c-1.3,2.7-5,12.1-5,12.1s1.3,1.3,1.2,4.1
	c-0.1,2.8-1.2,4.8-1.2,4.8L-47.5-1249.7z"/>
<path class="st2" d="M-53.6-1259.5c0,0,0.1-3.2,3.1-9.2c3-6.1,7.6-7.4,7.6-7.4l-0.9,1.7c0,0-3.8,2.5-5.3,6.2
	c-1.1,2.5-2.8,9.3-2.8,9.3L-53.6-1259.5z"/>
<g>
	<path class="st2" d="M-214.8-1661.8c-0.9,0-1.6-0.6-1.9-0.9c-0.2-0.2-3.9-5.5-18.5-26.8c-6-8.8-11.7-17-12.1-17.6
		c-0.6-0.8-3.5-2.7-6.1-2.7c-0.8,0-1.5,0.2-2.1,0.6c-1.9,1.4-2,2.3-1.8,2.5l0.4,0.6l-0.6,0.4l-3.5,3l-6.1-7.5l4.1-3l0.4,0.6
		c0,0,0.2,0.2,0.5,0.2c0.3,0,0.9-0.2,1.8-0.9c1.6-1.4,1.9-3.8,1.9-3.8l0-0.2l0.1-0.2c0.1-0.1,1.3-1.5,5.4-3.9
		c3.3-1.8,5.3-2.1,6.8-2.1c0.2,0,1.1,0,1.1,0c0.9,0,3.5,0.1,7.6,1c3.7,0.8,5.4,2.4,5.4,2.5l0.2,0.2l-0.2,1.9l-0.9-0.2
		c0,0-3.6-1-7.6-1.3c-0.6,0-1.1-0.1-1.6-0.1c-2,0-2.8,0.4-3.1,0.8c-0.1,0.1-0.4,0.4-0.2,1.3c0.4,2,1.8,4.4,2.7,5.8
		c0.2,0.4,0.4,0.7,0.6,0.9c0.7,1,16.4,19.7,25.9,30.8c6.5,7.6,8.1,9.5,8.2,9.7l0.1,0.1c0.4,0.5,1.1,1.5,0.5,2.5
		c-0.6,0.9-2.1,2.4-3.3,3.4c-1.3,1.1-3,2-3.7,2.3C-214.4-1661.9-214.6-1661.8-214.8-1661.8z"/>
	<path d="M-245.9-1722.9c0.4,0,0.7,0,1,0c0,0,0,0,0.1,0c0,0,0.1,0,0.1,0c1.4,0,3.9,0.2,7.4,1c3.6,0.8,5,2.3,5,2.3l-0.1,0.6
		c0,0-3.6-1-7.7-1.3c-0.6,0-1.1-0.1-1.6-0.1c-2.9,0-4.5,0.8-4,3c0.5,2.6,2.7,5.7,3.3,7c0.7,1.3,33.8,40.1,34.1,40.6
		c0.3,0.5,0.9,1.2,0.5,1.8c-0.5,0.8-1.9,2.2-3.1,3.2c-1.2,1-2.8,1.9-3.5,2.1c-0.1,0.1-0.3,0.1-0.4,0.1c-0.6,0-1.1-0.4-1.4-0.7
		c-0.4-0.4-29.5-43-30.5-44.4c-0.7-1-3.9-3-6.7-3c-0.9,0-1.8,0.2-2.5,0.7c-3,2.2-2,3.5-2,3.5l-2.9,2.5l-5.1-6.3l2.9-2.1
		c0,0,0.4,0.5,1.1,0.5c0.6,0,1.3-0.3,2.3-1.1c1.8-1.6,2.1-4.3,2.1-4.3s1.1-1.3,5.2-3.7C-249.1-1722.7-247.2-1722.9-245.9-1722.9
		 M-245.9-1724.4L-245.9-1724.4c-1.6,0-3.7,0.3-7.2,2.2c-4.2,2.4-5.5,3.8-5.7,4.1l-0.3,0.3l-0.1,0.4c0,0-0.3,2.1-1.6,3.3
		c-0.8,0.7-1.2,0.7-1.3,0.7c0,0,0,0.1,0.1,0.1l-0.9-1.2l-1.2,0.9l-2.9,2.1l-1.3,0.9l1,1.2l5.1,6.3l1,1.2l1.2-1l2.9-2.5l1.1-0.9
		l-0.7-0.9c0.1-0.2,0.4-0.8,1.5-1.6c0.4-0.3,1-0.5,1.6-0.5c2.4,0,5.1,1.8,5.5,2.3c0.4,0.6,6.1,8.8,12.1,17.6
		c16.8,24.5,18.3,26.7,18.5,26.9c0.4,0.4,1.3,1.2,2.5,1.2c0.3,0,0.7-0.1,1-0.2c0.8-0.3,2.5-1.2,3.9-2.4c1.2-1,2.8-2.6,3.5-3.6
		c0.9-1.4-0.1-2.8-0.5-3.4l-0.1-0.1c-0.1-0.2-0.8-1-8.3-9.8c-8.7-10.2-24.8-29.3-25.8-30.7c-0.1-0.3-0.3-0.6-0.6-0.9
		c-0.8-1.4-2.2-3.7-2.6-5.5c0-0.2-0.1-0.6,0-0.7c0.1-0.1,0.5-0.5,2.5-0.5c0.4,0,0.9,0,1.5,0.1c3.9,0.3,7.4,1.3,7.5,1.3l1.7,0.5
		l0.2-1.8l0.1-0.6l0.1-0.7l-0.5-0.5c-0.2-0.2-1.9-1.8-5.8-2.7c-4.1-0.9-6.8-1-7.7-1l-0.1,0l-0.1,0c-0.1,0-0.3,0-0.4,0
		C-245.5-1724.4-245.7-1724.4-245.9-1724.4L-245.9-1724.4L-245.9-1724.4z"/>
</g>
<line class="st27" x1="-263.1" y1="-1713.5" x2="-256.5" y2="-1705.6"/>
<path class="st27" d="M-241.8-1710.3c0,0-1,1.3-2.1,2.2c-1.1,0.9-2.8,1.7-2.8,1.7"/>
<path class="st27" d="M-219.5-1666.7c0,0,2.2-0.9,5-3.2c2.8-2.3,3.8-4.1,3.8-4.1"/>
<path class="st26" d="M-257.6-1707.5l5.2-2.5l5.2,2.5c0,0,1.3,1.2,3-0.9c1.8-2,2.2-3.2,2.2-3.2s-4.3-6.3-2.8-7.2
	c1.5-1,12.9,0.7,12.9,0.7l0.6-1.9c0,0-4.2-2.5-9.4-3.2c-5.2-0.7-7.3-1.1-9.3,0s-8.3,5.3-8.3,5.3s0.2,1.4-1,3.1s-2.8,2.5-2.8,2.5
	L-257.6-1707.5z"/>
<path class="st2" d="M-257.1-1716.2c0,0,1.5-1.9,5.9-4.3c4.5-2.4,7.9-1.3,7.9-1.3l-1.2,0.7c0,0-3.4-0.1-6,1.5
	c-1.7,1.1-5.7,4.5-5.7,4.5L-257.1-1716.2z"/>
</svg>
