<?xml version="1.0" encoding="utf-8"?>
<!-- Generator: Adobe Illustrator 19.2.1, SVG Export Plug-In . SVG Version: 6.00 Build 0)  -->
<svg version="1.1" id="mockup" xmlns="http://www.w3.org/2000/svg" xmlns:xlink="http://www.w3.org/1999/xlink" x="0px" y="0px"
	 viewBox="0 0 421.2 133.4" style="enable-background:new 0 0 421.2 133.4;" xml:space="preserve">
<style type="text/css">
	.st0{fill:#EE3D40;}
	.st1{fill:#D6D6D6;}
	.st2{fill:#ED3E4B;}
	.st3{fill:#FFFFFF;}
	.st4{fill:#FFFFFF;stroke:#000000;stroke-width:2;stroke-miterlimit:10;}
	.st5{fill:none;stroke:#000000;stroke-width:10;stroke-miterlimit:10;}
	.st6{fill:none;stroke:#020202;stroke-width:2;stroke-miterlimit:10;}
	.st7{fill:#333333;}
	.st8{fill:#E0C6C8;}
	.st9{fill:none;stroke:#EF7083;stroke-miterlimit:10;}
	.st10{fill:none;stroke:#E0C6C8;stroke-width:3;stroke-miterlimit:10;}
	.st11{fill:none;stroke:#E0C6C8;stroke-width:3;stroke-linecap:round;stroke-linejoin:bevel;stroke-miterlimit:10;}
	.st12{fill:#DB2C34;stroke:#000000;stroke-miterlimit:10;}
	.st13{fill:none;stroke:#ADADAD;stroke-width:1.0152;stroke-miterlimit:10;}
	.st14{clip-path:url(#SVGID_2_);}
	.st15{fill:#606060;}
	.st16{fill:#7C7C7C;}
	.st17{fill:none;stroke:#ADADAD;stroke-width:1.1123;stroke-miterlimit:10;}
	.st18{clip-path:url(#SVGID_4_);}
	.st19{fill:none;stroke:#D8D8D8;stroke-miterlimit:10;}
	.st20{fill:#E44B23;}
	.st21{fill:#563D7C;}
	.st22{fill:#F1E05A;}
	.st23{fill:#701516;}
	.st24{fill:#2B2728;stroke:#000000;stroke-miterlimit:10;}
	.st25{fill:#AF1F24;}
	.st26{fill:#FFE6EA;}
	.st27{fill:#020202;}
	.st28{fill:none;stroke:#020202;stroke-width:1.5077;stroke-miterlimit:10;}
</style>
<rect x="689.4" y="-300.7" class="st0" width="69" height="69"/>
<rect x="768.6" y="-300.7" class="st1" width="69" height="69"/>
<rect x="678.3" y="-91.8" class="st2" width="1200" height="450.4"/>
<g>
	<polygon class="st3" points="1216.3,-420.8 1216.3,-431.8 1187.3,-431.8 1187.3,-423.8 1125.3,-423.8 1125.3,-433.8 1073.3,-433.8 
		1073.3,-495.8 1135.3,-495.8 1135.3,-485.8 1172.3,-485.8 1172.3,-493.8 1235.3,-493.8 1235.3,-482.8 1268.3,-482.8 1268.3,-494.8 
		1321.3,-494.8 1321.3,-500.8 1383.3,-500.8 1383.3,-491.8 1420.3,-491.8 1420.3,-496.8 1482.3,-496.8 1482.3,-434.8 1427.3,-434.8 
		1427.3,-429.8 1365.3,-429.8 1365.3,-438.8 1330.3,-438.8 1330.3,-431.8 1278.3,-431.8 1278.3,-420.8 	"/>
	<path d="M1382.3-499.8v9h39v-5h60v60h-55v5h-60v-9h-37v7h-52v11h-60v-11h-31v8h-60v-10h-52v-60h60v10h39v-8h61v11h35v-12h53v-6
		H1382.3 M1384.3-501.8h-2h-60h-2v2v4h-51h-2v2v10h-31v-9v-2h-2h-61h-2v2v6h-35v-8v-2h-2h-60h-2v2v60v2h2h50v8v2h2h60h2v-2v-6h27v9
		v2h2h60h2v-2v-9h50h2v-2v-5h33v7v2h2h60h2v-2v-3h53h2v-2v-60v-2h-2h-60h-2v2v3h-35v-7V-501.8L1384.3-501.8z"/>
</g>
<polygon class="st4" points="1387.3,74.2 1387.3,65.2 1327.3,65.2 1327.3,125.2 1371.3,125.2 1371.3,134.2 1431.3,134.2 
	1431.3,74.2 "/>
<rect x="1275.7" y="70.2" class="st4" width="60" height="60"/>
<rect x="1223.8" y="81.5" class="st4" width="60" height="60"/>
<rect x="1069.2" y="70" class="st4" width="60" height="60"/>
<polygon class="st4" points="1228.3,72.2 1168.3,72.2 1168.3,80.2 1121.3,80.2 1121.3,140.2 1181.3,140.2 1181.3,132.2 
	1228.3,132.2 "/>
<rect x="1427.4" y="67.4" class="st4" width="60" height="60"/>
<text transform="matrix(1 0 0 1 1078.4907 121.1134)" style="font-family:'LeagueSpartan-Bold'; font-size:52.0229px;">H</text>
<g>
	<text transform="matrix(1 0 0 1 1129.9894 131.0498)" style="font-family:'LeagueSpartan-Bold'; font-size:52.0229px;">A</text>
</g>
<g>
	<text transform="matrix(1 0 0 1 1177.6141 122.8663)" style="font-family:'LeagueSpartan-Bold'; font-size:52.0229px;">C</text>
</g>
<g>
	<text transform="matrix(1 0 0 1 1233.548 133.1027)" style="font-family:'LeagueSpartan-Bold'; font-size:52.0229px;">K</text>
</g>
<g>
	<text transform="matrix(1 0 0 1 1290.2363 122.216)" style="font-family:'LeagueSpartan-Bold'; font-size:52.0229px;">T</text>
</g>
<g>
	<text transform="matrix(1 0 0 1 1347.4041 114.9066)" style="font-family:'LeagueSpartan-Bold'; font-size:52.0229px;">I</text>
</g>
<g>
	<text transform="matrix(1 0 0 1 1379.8904 124.7902)" style="font-family:'LeagueSpartan-Bold'; font-size:52.0229px;">V</text>
</g>
<g>
	<text transform="matrix(1 0 0 1 1440.9216 117.7372)" style="font-family:'LeagueSpartan-Bold'; font-size:52.0229px;">E</text>
</g>
<path class="st5" d="M1357,114.9"/>
<path class="st5" d="M1335.8,114.9"/>
<g>
	<path class="st3" d="M1442.6,61.9c-0.3,0-0.6,0-0.9-0.1c-0.4-0.1-8.4-3-40.5-15.1c-13.2-5-25.6-9.6-26.5-9.9
		c-0.3-0.1-0.9-0.2-1.6-0.2c-2.9,0-7.8,1.1-8.8,4.2c-1,2.9-0.4,4-0.1,4.1l0.9,0.3l-0.3,0.9l-1.5,5.9l-12.4-3.5l2.2-6.4l0.9,0.3
		c0,0,0,0,0,0c0,0,0.1,0,0.1,0c0.8,0,1.5-0.9,1.9-2.6c0.6-2.7-0.8-5.5-0.9-5.5l-0.1-0.2l0-0.3c0-0.3,0.2-2.6,3-8.3
		c2.5-5.3,4.9-6.8,6.4-7.9c0.2-0.1,0.4-0.2,0.5-0.4c1-0.7,3.9-2.6,9.1-4.8c3-1.2,5.2-1.5,6.6-1.5c0.7,0,1.1,0.1,1.2,0.1l0.5,0.1
		l1.2,2.1l-1.1,0.4c0,0-4.7,1.6-9.3,4.4c-2.9,1.7-4.4,3.1-4.5,4.3c0,0.2-0.1,0.8,0.8,1.7c1.9,1.9,5.3,3.3,7.3,4.2
		c0.5,0.2,1,0.4,1.3,0.6c1.5,0.6,32.8,8.8,51.5,13.7c12.8,3.4,16.1,4.2,16.4,4.3l0.2,0.1c0.8,0.3,2.3,0.9,2.4,2.4
		c0.1,1.4-0.4,4.2-1,6.2c-0.6,2.2-1.7,4.4-2.3,5.3C1444.7,61.5,1443.8,61.9,1442.6,61.9L1442.6,61.9z"/>
	<path d="M1380.6,11.9c0.6,0,1,0.1,1,0.1l0.4,0.7c0,0-4.7,1.6-9.4,4.4c-4.4,2.6-6.4,5-3.9,7.5c2.6,2.5,7.2,4.2,8.9,5
		c1.7,0.8,67.2,17.8,67.9,18.1c0.7,0.3,1.9,0.6,2,1.6c0.1,1.2-0.4,3.8-0.9,5.9c-0.6,2-1.6,4.2-2.2,5c-0.4,0.6-1.1,0.8-1.7,0.8
		c-0.3,0-0.5,0-0.7-0.1c-0.8-0.1-64.7-24.3-66.9-25c-0.4-0.1-1.1-0.2-2-0.2c-3.2,0-8.5,1.2-9.8,4.8c-1.6,4.7,0.5,5.4,0.5,5.4
		l-1.2,4.9l-10.4-2.9l1.5-4.5c0,0,0.2,0.1,0.4,0.1c0.7,0,2.1-0.4,2.8-3.4c0.7-3.1-1-6.2-1-6.2s0.1-2.3,2.9-8s5.1-6.8,6.6-7.8
		c1.5-1.1,4.4-2.8,8.9-4.7C1377.2,12.1,1379.4,11.9,1380.6,11.9 M1380.6,9.9c-1.5,0-3.9,0.3-7,1.6c-5.3,2.2-8.3,4.1-9.3,4.9
		c-0.2,0.1-0.3,0.2-0.5,0.3c-1.6,1.1-4.1,2.7-6.7,8.3c-2.8,5.8-3,8.3-3.1,8.7l0,0.6l0.3,0.5c0,0,1.3,2.5,0.8,4.8
		c-0.3,1.3-0.7,1.7-0.9,1.8l-1.7-0.5l-0.6,1.9l-1.5,4.5l-0.7,2l2,0.6l10.4,2.9l2,0.6l0.5-2l1.3-4.9l0.5-1.8l-1.4-0.5
		c-0.1-0.3-0.2-1.1,0.4-2.9c0.8-2.4,5.1-3.5,7.9-3.5c0.9,0,1.3,0.1,1.3,0.1c0.9,0.3,13.3,5,26.5,9.9c36.9,13.9,40.2,15.1,40.7,15.2
		c0.4,0.1,0.7,0.1,1.1,0.1c1.5,0,2.7-0.6,3.4-1.7c0.6-0.9,1.8-3.3,2.4-5.6c0.6-2,1.1-4.9,1-6.5c-0.1-2.2-2.2-2.9-3.1-3.3l-0.2-0.1
		c-0.3-0.1-1.6-0.5-16.4-4.3c-17.2-4.5-49.2-12.9-51.4-13.7c-0.3-0.2-0.8-0.4-1.3-0.6c-2-0.9-5.2-2.3-7-4c-0.2-0.2-0.5-0.6-0.5-0.8
		c0-0.2,0.3-1.3,4-3.5c4.5-2.7,9-4.3,9.1-4.3l2.3-0.8l-1.2-2.1l-0.4-0.7l-0.5-0.8l-0.9-0.2C1381.8,10,1381.3,9.9,1380.6,9.9
		L1380.6,9.9z"/>
</g>
<line class="st6" x1="1352.7" y1="42" x2="1365.8" y2="45.5"/>
<path class="st6" d="M1378.3,29.2c0,0-0.1,2.2-0.6,4s-1.7,4-1.7,4"/>
<rect x="678.3" y="358.6" class="st7" width="1200" height="1469"/>
<text transform="matrix(1 0 0 1 1163.1063 258.2065)" class="st8" style="font-family:'LeagueSpartan-Bold'; font-size:12px; letter-spacing:1;">Search</text>
<rect x="1109.4" y="229.2" class="st9" width="337.7" height="48"/>
<g>
	<circle class="st10" cx="1139.2" cy="251.4" r="7.1"/>
	<line class="st11" x1="1133.6" y1="257" x2="1127.9" y2="262.7"/>
</g>
<rect x="1141.3" y="-48.3" transform="matrix(0.7071 -0.7071 0.7071 0.7071 364.0143 803.6407)" class="st12" width="21.5" height="21.5"/>
<rect x="1114.9" y="-48.3" transform="matrix(0.7071 -0.7071 0.7071 0.7071 356.2691 784.9422)" class="st12" width="21.5" height="21.5"/>
<rect x="1133.5" y="-29.7" transform="matrix(0.7071 -0.7071 0.7071 0.7071 348.5541 803.5678)" class="st12" width="21.5" height="21.5"/>
<rect x="1606.8" y="10.7" transform="matrix(0.7071 -0.7071 0.7071 0.7071 458.6268 1150.076)" class="st12" width="21.5" height="21.5"/>
<rect x="1591.6" y="-19.7" transform="matrix(0.7071 -0.7071 0.7071 0.7071 475.674 1130.4204)" class="st12" width="21.5" height="21.5"/>
<rect x="1408.7" y="-49.8" transform="matrix(0.7071 -0.7071 0.7071 0.7071 443.3209 992.2651)" class="st12" width="21.5" height="21.5"/>
<rect x="1702.8" y="94.1" transform="matrix(0.7071 -0.7071 0.7071 0.7071 427.7045 1242.3679)" class="st12" width="21.5" height="21.5"/>
<rect x="1628.6" y="212.6" transform="matrix(0.7071 -0.7071 0.7071 0.7071 322.2458 1224.6177)" class="st12" width="21.5" height="21.5"/>
<rect x="1539.3" y="266.5" transform="matrix(0.7071 -0.7071 0.7071 0.7071 257.9951 1177.2753)" class="st12" width="21.5" height="21.5"/>
<rect x="799.5" y="224.1" transform="matrix(-0.7071 0.7071 -0.7071 -0.7071 1549.1689 -172.0531)" class="st12" width="21.5" height="21.5"/>
<rect x="773.5" y="208.9" transform="matrix(-0.7071 0.7071 -0.7071 -0.7071 1494.0341 -179.6212)" class="st12" width="21.5" height="21.5"/>
<rect x="918.8" y="130.8" transform="matrix(-0.7071 0.7071 -0.7071 -0.7071 1686.8838 -415.5817)" class="st12" width="21.5" height="21.5"/>
<rect x="1612" y="183.2" transform="matrix(0.7071 -0.7071 0.7071 0.7071 338.1266 1204.2924)" class="st12" width="21.5" height="21.5"/>
<rect x="987.7" y="239.7" transform="matrix(0.7071 -0.7071 0.7071 0.7071 115.3649 779.3272)" class="st12" width="21.5" height="21.5"/>
<rect x="1786.1" y="245" transform="matrix(0.7071 -0.7071 0.7071 0.7071 345.4257 1345.5088)" class="st12" width="21.5" height="21.5"/>
<rect x="1779.7" y="231.2" transform="matrix(0.7071 -0.7071 0.7071 0.7071 353.3567 1336.9236)" class="st12" width="21.5" height="21.5"/>
<rect x="1771.4" y="-14.5" transform="matrix(0.7071 -0.7071 0.7071 0.7071 524.669 1259.0946)" class="st12" width="21.5" height="21.5"/>
<rect x="1756.2" y="258.5" transform="matrix(0.7071 -0.7071 0.7071 0.7071 327.1794 1328.3031)" class="st12" width="21.5" height="21.5"/>
<rect x="1815.3" y="220.9" transform="matrix(0.7071 -0.7071 0.7071 0.7071 371.0684 1359.0404)" class="st12" width="21.5" height="21.5"/>
<rect x="1718" y="87.8" transform="matrix(0.7071 -0.7071 0.7071 0.7071 436.6262 1251.2668)" class="st12" width="21.5" height="21.5"/>
<rect x="978.5" y="3.8" transform="matrix(0.7071 -0.7071 0.7071 0.7071 279.4774 703.7935)" class="st12" width="21.5" height="21.5"/>
<rect x="934.5" y="-26.6" transform="matrix(0.7071 -0.7071 0.7071 0.7071 288.0749 663.7385)" class="st12" width="21.5" height="21.5"/>
<rect x="856.3" y="101.5" transform="matrix(0.7071 -0.7071 0.7071 0.7071 174.6214 645.9914)" class="st12" width="21.5" height="21.5"/>
<rect x="837.7" y="73.5" transform="matrix(0.7071 -0.7071 0.7071 0.7071 188.9558 624.6268)" class="st12" width="21.5" height="21.5"/>
<rect x="753.7" y="-9.6" transform="matrix(0.7071 -0.7071 0.7071 0.7071 223.0445 540.8661)" class="st12" width="21.5" height="21.5"/>
<rect x="738.5" y="-9.6" transform="matrix(0.7071 -0.7071 0.7071 0.7071 218.5918 530.1161)" class="st12" width="21.5" height="21.5"/>
<rect x="822.5" y="112.5" transform="matrix(0.7071 -0.7071 0.7071 0.7071 156.9259 625.2996)" class="st12" width="21.5" height="21.5"/>
<rect x="902.7" y="430.2" class="st3" width="751.1" height="291.6"/>
<rect x="1062" y="505.8" class="st13" width="91.2" height="34.4"/>
<text transform="matrix(1 0 0 1 1059.4618 491.2809)" class="st0" style="font-family:'LeagueSpartan-Bold'; font-size:18px;">Gabriel Reis</text>
<g>
	<defs>
		<circle id="SVGID_1_" cx="982" cy="505.7" r="49.5"/>
	</defs>
	<clipPath id="SVGID_2_">
		<use xlink:href="#SVGID_1_"  style="overflow:visible;"/>
	</clipPath>
	<g id="eZOrvF.tif" class="st14">
		
			<image style="overflow:visible;" width="460" height="460" id="Layer_0_1_" xlink:href="110EACA65086BA9.png"  transform="matrix(0.2152 0 0 0.2152 932.5369 456.2009)">
		</image>
	</g>
</g>
<g>
	<text transform="matrix(1 0 0 1 1101.2633 527.213)" class="st15" style="font-family:'LeagueSpartan-Bold'; font-size:13px;">greis</text>
</g>
<text transform="matrix(1 0 0 1 1075.293 530.2297)" class="st15" style="font-family:'FontAwesome'; font-size:20px;"></text>
<rect x="1060.5" y="605.2" style="fill:none;" width="33.8" height="16.6"/>
<text transform="matrix(1 0 0 1 1060.4985 620.6618)" class="st7" style="font-family:'github-octicons'; font-size:19px;"></text>
<g>
	<rect x="1085.5" y="607.2" style="fill:none;" width="280.8" height="17"/>
	<text transform="matrix(1 0 0 1 1085.4746 619.2482)"><tspan x="0" y="0" class="st7" style="font-family:'LeagueSpartan-Bold'; font-size:14px;">Pull request for </tspan><tspan x="121.9" y="0" class="st0" style="font-family:'LeagueSpartan-Bold'; font-size:14px;">telly/TLYShyNavBar</tspan></text>
</g>
<g>
	<rect x="1085.5" y="630" style="fill:none;" width="390" height="17"/>
	<text transform="matrix(1 0 0 1 1085.4746 640.1985)" class="st7" style="font-family:'WorkSans-Light'; font-size:14px;">Expand navBar if scrollView&apos;s window is visible</text>
</g>
<g>
	<rect x="1085.5" y="656.8" style="fill:none;" width="390" height="17"/>
	<text transform="matrix(1 0 0 1 1085.4746 667.0195)" class="st16" style="font-family:'WorkSans-ExtraLight'; font-size:14px;">Apr 27, 2016 11:40 AM</text>
</g>
<text transform="matrix(1 0 0 1 1368.2325 617.8486)"><tspan x="0" y="0" class="st7" style="font-family:'LeagueSpartan-Bold'; font-size:12px;">(</tspan><tspan x="5.8" y="0" class="st7" style="font-family:'github-octicons'; font-size:14px; letter-spacing:1;"></tspan><tspan x="19.9" y="0" class="st7" style="font-family:'LeagueSpartan-Bold'; font-size:12px; letter-spacing:1;">4</tspan><tspan x="29.1" y="0" class="st7" style="font-family:'LeagueSpartan-Bold'; font-size:12px;">)</tspan></text>
<rect x="902.7" y="794.2" class="st3" width="751.1" height="696.7"/>
<rect x="1062" y="868.8" class="st17" width="109.5" height="34.4"/>
<text transform="matrix(1 0 0 1 1059.4618 854.2516)" class="st0" style="font-family:'LeagueSpartan-Bold'; font-size:18px;">Dorian Karter</text>
<g>
	<defs>
		<circle id="SVGID_3_" cx="982" cy="869.7" r="49.5"/>
	</defs>
	<clipPath id="SVGID_4_">
		<use xlink:href="#SVGID_3_"  style="overflow:visible;"/>
	</clipPath>
	<g id="svOERB.tif" class="st18">
		
			<image style="overflow:visible;" width="460" height="460" id="Layer_0_3_" xlink:href="110EACA65086BAB.png"  transform="matrix(0.2238 0 0 0.2238 930.1338 818.202)">
		</image>
	</g>
</g>
<g>
	<text transform="matrix(1 0 0 1 1101.2633 890.1837)" class="st15" style="font-family:'LeagueSpartan-Bold'; font-size:13px;">dkarter</text>
</g>
<text transform="matrix(1 0 0 1 1075.293 893.2004)" class="st15" style="font-family:'FontAwesome'; font-size:20px;"></text>
<rect x="1060.5" y="968.2" style="fill:none;" width="33.8" height="16.6"/>
<text transform="matrix(1 0 0 1 1060.4985 983.6324)" class="st7" style="font-family:'github-octicons'; font-size:19px;"></text>
<g>
	<rect x="1085.5" y="970.2" style="fill:none;" width="183.2" height="17"/>
	<text transform="matrix(1 0 0 1 1085.4746 982.2189)"><tspan x="0" y="0" class="st7" style="font-family:'LeagueSpartan-Bold'; font-size:14px;">Pushed to </tspan><tspan x="79.3" y="0" class="st0" style="font-family:'LeagueSpartan-Bold'; font-size:14px;">dkarter/blog</tspan></text>
</g>
<g>
	<rect x="1085.5" y="1016" style="fill:none;" width="390" height="17"/>
	<text transform="matrix(1 0 0 1 1085.4746 1026.1876)" class="st7" style="font-family:'WorkSans-Light'; font-size:14px;">Post: git shallow clone</text>
</g>
<g>
	<rect x="1085.5" y="1042.8" style="fill:none;" width="390" height="17"/>
	<text transform="matrix(1 0 0 1 1085.4746 1053.0085)" class="st16" style="font-family:'WorkSans-ExtraLight'; font-size:14px;">Apr 26, 2016 9:45 Am</text>
</g>
<rect x="1060.5" y="1144.2" style="fill:none;" width="33.8" height="16.6"/>
<text transform="matrix(1 0 0 1 1060.4985 1159.6989)" class="st7" style="font-family:'github-octicons'; font-size:19px;"></text>
<g>
	<rect x="1085.5" y="1146.2" style="fill:none;" width="390" height="17"/>
	<text transform="matrix(1 0 0 1 1085.4746 1158.2852)"><tspan x="0" y="0" class="st7" style="font-family:'LeagueSpartan-Bold'; font-size:14px;">Pushed to</tspan><tspan x="75" y="0" class="st0" style="font-family:'LeagueSpartan-Bold'; font-size:14px;"> dkarter/blog</tspan></text>
</g>
<g>
	<rect x="1085.5" y="1217.1" style="fill:none;" width="390" height="17"/>
	<text transform="matrix(1 0 0 1 1085.4746 1227.2738)" class="st7" style="font-family:'WorkSans-Light'; font-size:14px;">Post: kill listening processes on a port</text>
</g>
<g>
	<rect x="1085.5" y="1189.5" style="fill:none;" width="390" height="17"/>
	<text transform="matrix(1 0 0 1 1085.4746 1198.2349)" class="st7" style="font-family:'WorkSans-Medium'; font-size:12px;">60% Ruby, 25% JavaScript, 15% HTML</text>
</g>
<g>
	<rect x="1085.5" y="1243.9" style="fill:none;" width="390" height="17"/>
	<text transform="matrix(1 0 0 1 1085.4746 1254.0947)" class="st16" style="font-family:'WorkSans-ExtraLight'; font-size:14px;">Apr 25, 2016 10:25 pm</text>
</g>
<line class="st19" x1="903.5" y1="1099.2" x2="1653.1" y2="1099.2"/>
<rect x="1060.5" y="1344.6" style="fill:none;" width="33.8" height="16.6"/>
<text transform="matrix(1 0 0 1 1060.4985 1360.0851)" class="st7" style="font-family:'github-octicons'; font-size:19px;"></text>
<g>
	<rect x="1085.5" y="1346.6" style="fill:none;" width="390" height="17"/>
	<text transform="matrix(1 0 0 1 1085.4746 1358.6715)"><tspan x="0" y="0" class="st7" style="font-family:'LeagueSpartan-Bold'; font-size:14px;">Pushed to</tspan><tspan x="75" y="0" class="st0" style="font-family:'LeagueSpartan-Bold'; font-size:14px;"> dkarter/dotfiles</tspan></text>
</g>
<g>
	<rect x="1085.5" y="1395.4" style="fill:none;" width="390" height="17"/>
	<text transform="matrix(1 0 0 1 1085.4746 1405.6426)" class="st7" style="font-family:'WorkSans-Light'; font-size:14px;">Move local aliases load to bottom</text>
</g>
<g>
	<rect x="1085.5" y="1422.2" style="fill:none;" width="390" height="17"/>
	<text transform="matrix(1 0 0 1 1085.4746 1432.4635)" class="st16" style="font-family:'WorkSans-ExtraLight'; font-size:14px;">Apr 25, 2016 8:25 pm</text>
</g>
<line class="st19" x1="903.5" y1="1299.5" x2="1653.1" y2="1299.5"/>
<g>
	<rect x="1086.2" y="996.5" class="st20" width="182.7" height="4.8"/>
	<rect x="1269" y="996.5" class="st21" width="55.5" height="4.8"/>
	<rect x="1324.5" y="996.5" class="st22" width="30.1" height="4.8"/>
	<rect x="1354.6" y="996.5" class="st23" width="11.7" height="4.8"/>
</g>
<g>
	<rect x="1086.2" y="1175.2" class="st21" width="182.7" height="4.8"/>
	<rect x="1269" y="1175.2" class="st22" width="55.5" height="4.8"/>
	<rect x="1324.5" y="1175.2" class="st22" width="30.1" height="4.8"/>
	<rect x="1354.6" y="1175.2" class="st20" width="11.7" height="4.8"/>
</g>
<rect x="1086.2" y="1374.9" class="st21" width="280.1" height="4.8"/>
<rect x="1022.9" y="1813.4" transform="matrix(0.7071 -0.7071 0.7071 0.7071 -987.1227 1265.2065)" class="st24" width="21.5" height="21.5"/>
<rect x="1038.1" y="1767.6" transform="matrix(0.7071 -0.7071 0.7071 0.7071 -950.2729 1262.5372)" class="st24" width="21.5" height="21.5"/>
<rect x="1101.3" y="1783.4" transform="matrix(0.7071 -0.7071 0.7071 0.7071 -942.9526 1311.8427)" class="st24" width="21.5" height="21.5"/>
<rect x="838.6" y="1802.8" transform="matrix(0.7071 -0.7071 0.7071 0.7071 -1033.6008 1131.7926)" class="st24" width="21.5" height="21.5"/>
<rect x="755.9" y="1813.4" transform="matrix(0.7071 -0.7071 0.7071 0.7071 -1065.3268 1076.405)" class="st24" width="21.5" height="21.5"/>
<rect x="1055.4" y="1772.2" transform="matrix(0.7071 -0.7071 0.7071 0.7071 -948.4795 1276.0669)" class="st24" width="21.5" height="21.5"/>
<rect x="974.2" y="1792.8" transform="matrix(0.7071 -0.7071 0.7071 0.7071 -986.7989 1224.7393)" class="st24" width="21.5" height="21.5"/>
<rect x="919" y="1810.7" transform="matrix(0.7071 -0.7071 0.7071 0.7071 -1015.6495 1190.8983)" class="st24" width="21.5" height="21.5"/>
<rect x="915.8" y="1825.9" transform="matrix(0.7071 -0.7071 0.7071 0.7071 -1027.3241 1193.1189)" class="st24" width="21.5" height="21.5"/>
<rect x="1055.4" y="1750.4" transform="matrix(0.7071 -0.7071 0.7071 0.7071 -933.0444 1269.6736)" class="st24" width="21.5" height="21.5"/>
<rect x="1157.4" y="1767" transform="matrix(0.7071 -0.7071 0.7071 0.7071 -914.9138 1346.6765)" class="st24" width="21.5" height="21.5"/>
<rect x="1308.6" y="1772.2" transform="matrix(0.7071 -0.7071 0.7071 0.7071 -874.3168 1455.1115)" class="st24" width="21.5" height="21.5"/>
<rect x="1164.6" y="1784.7" transform="matrix(0.7071 -0.7071 0.7071 0.7071 -925.3514 1356.9481)" class="st24" width="21.5" height="21.5"/>
<rect x="1543.6" y="1769.5" transform="matrix(0.7071 -0.7071 0.7071 0.7071 -803.582 1620.5201)" class="st24" width="21.5" height="21.5"/>
<rect x="1401.7" y="1735.2" transform="matrix(0.7071 -0.7071 0.7071 0.7071 -820.8443 1510.1433)" class="st24" width="21.5" height="21.5"/>
<rect x="1237" y="1813.4" transform="matrix(0.7071 -0.7071 0.7071 0.7071 -924.4186 1416.5878)" class="st24" width="21.5" height="21.5"/>
<rect x="1374.4" y="1820.6" transform="matrix(0.7071 -0.7071 0.7071 0.7071 -889.2725 1515.8435)" class="st24" width="21.5" height="21.5"/>
<rect x="1183.4" y="1705.1" transform="matrix(0.7071 -0.7071 0.7071 0.7071 -863.483 1346.9711)" class="st24" width="21.5" height="21.5"/>
<rect x="1253.6" y="1761.3" transform="matrix(0.7071 -0.7071 0.7071 0.7071 -882.7158 1413.0712)" class="st24" width="21.5" height="21.5"/>
<rect x="1249.4" y="1750.4" transform="matrix(0.7071 -0.7071 0.7071 0.7071 -876.2219 1406.8555)" class="st24" width="21.5" height="21.5"/>
<rect x="1709.8" y="1833.2" transform="matrix(0.7071 -0.7071 0.7071 0.7071 -799.9399 1756.7114)" class="st24" width="21.5" height="21.5"/>
<rect x="1693.5" y="1769.5" transform="matrix(0.7071 -0.7071 0.7071 0.7071 -759.6677 1726.5388)" class="st24" width="21.5" height="21.5"/>
<rect x="934" y="1743.5" transform="matrix(0.7071 -0.7071 0.7071 0.7071 -963.765 1181.8496)" class="st24" width="21.5" height="21.5"/>
<rect x="885.6" y="1769.6" transform="matrix(0.7071 -0.7071 0.7071 0.7071 -996.3914 1155.2384)" class="st24" width="21.5" height="21.5"/>
<rect x="1535.5" y="1754.3" transform="matrix(-0.7071 -0.7071 0.7071 -0.7071 1391.5238 4106.522)" class="st24" width="21.5" height="21.5"/>
<rect x="1528.4" y="1767" transform="matrix(-0.7071 -0.7071 0.7071 -0.7071 1370.4415 4123.1304)" class="st24" width="21.5" height="21.5"/>
<rect x="1270.8" y="1744.1" transform="matrix(-0.7071 -0.7071 0.7071 -0.7071 946.9505 3901.9351)" class="st24" width="21.5" height="21.5"/>
<rect x="1445.7" y="1776.2" transform="matrix(-0.7071 -0.7071 0.7071 -0.7071 1222.7867 4080.4875)" class="st24" width="21.5" height="21.5"/>
<rect x="1611.5" y="1805.4" transform="matrix(-0.7071 -0.7071 0.7071 -0.7071 1485.1445 4247.5)" class="st24" width="21.5" height="21.5"/>
<rect x="1789.4" y="1813.4" transform="matrix(-0.7071 -0.7071 0.7071 -0.7071 1783.129 4386.9287)" class="st24" width="21.5" height="21.5"/>
<rect x="1465.4" y="1772.1" transform="matrix(-0.7071 -0.7071 0.7071 -0.7071 1259.3474 4087.3318)" class="st24" width="21.5" height="21.5"/>
<rect x="1427.9" y="1805.4" transform="matrix(-0.7071 -0.7071 0.7071 -0.7071 1171.7754 4117.6982)" class="st24" width="21.5" height="21.5"/>
<rect x="1513.2" y="1802.8" transform="matrix(-0.7071 -0.7071 0.7071 -0.7071 1319.1559 4173.5396)" class="st24" width="21.5" height="21.5"/>
<rect x="1498" y="1724" transform="matrix(-0.7071 -0.7071 0.7071 -0.7071 1349.036 4028.1931)" class="st24" width="21.5" height="21.5"/>
<rect x="1333.5" y="1681.4" transform="matrix(-0.7071 -0.7071 0.7071 -0.7071 1098.2458 3839.2664)" class="st24" width="21.5" height="21.5"/>
<rect x="1580.9" y="1761.3" transform="matrix(-0.7071 -0.7071 0.7071 -0.7071 1464.1149 4150.5278)" class="st24" width="21.5" height="21.5"/>
<g>
	<path class="st3" d="M1239.6,1609.1h-6.3v-5.7h-2.3v13.6h2.3v-5.7h6.3v5.7h2.3v-13.6h-2.3V1609.1z M1251.6,1611
		c0-1.8-1.1-3.4-3.9-3.4c-2.2,0-3.7,1.4-3.8,3l2,0.4c0.1-0.9,0.7-1.6,1.9-1.6c1.2,0,1.7,0.6,1.7,1.4c0,0.3-0.1,0.6-0.7,0.7l-2.3,0.4
		c-1.6,0.2-2.7,1.1-2.7,2.7c0,1.4,1.2,2.7,3.1,2.7c1.5,0,2.4-0.7,2.8-1.4c0,0.7,0.1,1.1,0.1,1.2h2c0-0.1-0.1-0.6-0.1-1.5V1611z
		 M1249.5,1613.2c0,1.8-1,2.4-2.3,2.4c-0.9,0-1.3-0.6-1.3-1.2c0-0.7,0.5-1.1,1.2-1.2l2.4-0.4V1613.2z M1257.8,1611.5l-1.4-0.3
		c-0.6-0.1-0.9-0.5-0.9-1c0-0.6,0.5-1.1,1.3-1.1c1.2,0,1.6,0.8,1.7,1.4l1.8-0.5c-0.2-0.9-1-2.6-3.5-2.6c-1.9,0-3.4,1.4-3.4,3
		c0,1.3,0.8,2.3,2.5,2.7l1.4,0.3c0.7,0.2,1.1,0.5,1.1,1c0,0.6-0.5,1.1-1.4,1.1c-1.2,0-1.8-0.7-1.9-1.6l-1.9,0.5
		c0.1,1,1.1,2.8,3.8,2.8c2.3,0,3.5-1.5,3.5-2.9C1260.4,1613,1259.5,1611.9,1257.8,1611.5z M1267.2,1607.5c-1,0-2,0.3-2.6,1.2v-5.3
		h-2.2v13.6h2.2v-5.4c0-1.2,0.7-2.1,1.9-2.1c1.4,0,1.9,0.9,1.9,2v5.4h2.2v-5.8C1270.6,1609.2,1269.5,1607.5,1267.2,1607.5z
		 M1275,1609.2v-1.5h-2.1v9.3h2.2v-4.5c0-1.7,0.8-2.7,2.5-2.7c0.2,0,0.5,0,0.7,0.1v-2.2c-0.1,0-0.3-0.1-0.6-0.1
		C1276.4,1607.6,1275.4,1608.2,1275,1609.2z M1284,1607.6c-2.7,0-4.7,2-4.7,4.8c0,2.8,2,4.8,4.7,4.8c2.7,0,4.7-2,4.7-4.8
		C1288.7,1609.6,1286.7,1607.6,1284,1607.6z M1284,1615.3c-1.3,0-2.5-1-2.5-2.9c0-1.9,1.2-2.9,2.5-2.9c1.3,0,2.5,1,2.5,2.9
		C1286.5,1614.3,1285.3,1615.3,1284,1615.3z M1295.1,1615.3c-1.4,0-2.5-1-2.5-2.9s1.2-2.8,2.5-2.8c1.4,0,2,0.9,2.2,1.7l1.9-0.7
		c-0.4-1.5-1.7-3-4.2-3c-2.6,0-4.7,2-4.7,4.8c0,2.8,2,4.8,4.7,4.8c2.4,0,3.8-1.6,4.2-3l-1.9-0.7
		C1297.1,1614.3,1296.5,1615.3,1295.1,1615.3z M1306.9,1607.7l-3.7,3.9v-8.1h-2.2v13.6h2.2v-2.6l1.1-1.2l2.7,3.8h2.7l-3.8-5.3l3.9-4
		H1306.9z M1314.4,1607.6c-2.3,0-4.4,1.9-4.4,4.8c0,3.1,2.2,4.9,4.7,4.9c2.2,0,3.6-1.3,4.1-2.9l-1.8-0.6c-0.3,0.9-1,1.6-2.3,1.6
		c-1.3,0-2.4-1-2.5-2.4h6.7c0,0,0.1-0.3,0.1-0.7C1318.9,1609.5,1317.2,1607.6,1314.4,1607.6z M1312.2,1611.4c0.1-1,0.9-2,2.2-2
		c1.5,0,2.2,1,2.2,2H1312.2z M1324.9,1615.2c-0.8,0-1.2-0.3-1.2-1.2v-4.3h1.9v-1.9h-1.9v-2.8h-2v1.4c0,0.8-0.4,1.4-1.4,1.4h-0.5v1.9
		h1.7v4.6c0,1.7,1.1,2.7,2.8,2.7c0.8,0,1.2-0.2,1.3-0.2v-1.8C1325.5,1615.1,1325.2,1615.2,1324.9,1615.2z"/>
	<g>
		<path class="st25" d="M1270.7,1575.2l-4.1,5l3.6,2l-3.4,4.2l4.1,2.4l-1.3,6.7l6.5-1.5l2.4,4.1l4.2-3.5l2.2,3.9l5-4.2v-19.1
			L1270.7,1575.2z"/>
		<path class="st3" d="M1277.1,1582.7l-4.1,4.1l1.5,1.5l4.1-4.1L1277.1,1582.7z M1276.5,1590.2l1.5,1.5l4.1-4.1l-1.5-1.5
			L1276.5,1590.2z M1275.6,1579.1v2.1h8.2v8.2h2.1v-10.3L1275.6,1579.1z"/>
	</g>
</g>
<g>
	<path class="st3" d="M351.9,1319h-6.3v-5.7h-2.3v13.6h2.3v-5.7h6.3v5.7h2.3v-13.6h-2.3V1319z M363.9,1320.8c0-1.8-1.1-3.4-3.9-3.4
		c-2.2,0-3.7,1.4-3.8,3l2,0.4c0.1-0.9,0.7-1.6,1.9-1.6c1.2,0,1.7,0.6,1.7,1.4c0,0.3-0.1,0.6-0.7,0.7l-2.3,0.4
		c-1.6,0.2-2.7,1.1-2.7,2.7c0,1.4,1.2,2.7,3.1,2.7c1.5,0,2.4-0.7,2.8-1.4c0,0.7,0.1,1.1,0.1,1.2h2c0-0.1-0.1-0.6-0.1-1.5V1320.8z
		 M361.8,1323c0,1.8-1,2.4-2.3,2.4c-0.9,0-1.3-0.6-1.3-1.2c0-0.7,0.5-1.1,1.2-1.2l2.4-0.4V1323z M370.1,1321.4l-1.4-0.3
		c-0.6-0.1-0.9-0.5-0.9-1c0-0.6,0.5-1.1,1.3-1.1c1.2,0,1.6,0.8,1.7,1.4l1.8-0.5c-0.2-0.9-1-2.6-3.5-2.6c-1.9,0-3.4,1.4-3.4,3
		c0,1.3,0.8,2.3,2.5,2.7l1.4,0.3c0.7,0.2,1.1,0.5,1.1,1c0,0.6-0.5,1.1-1.4,1.1c-1.2,0-1.8-0.7-1.9-1.6l-1.9,0.5
		c0.1,1,1.1,2.8,3.8,2.8c2.3,0,3.5-1.5,3.5-2.9C372.7,1322.8,371.8,1321.7,370.1,1321.4z M379.6,1317.4c-1,0-2,0.3-2.6,1.2v-5.3
		h-2.2v13.6h2.2v-5.4c0-1.2,0.7-2.1,1.9-2.1c1.4,0,1.9,0.9,1.9,2v5.4h2.2v-5.8C382.9,1319,381.8,1317.4,379.6,1317.4z M387.3,1319
		v-1.5h-2.1v9.3h2.2v-4.5c0-1.7,0.8-2.7,2.5-2.7c0.2,0,0.5,0,0.7,0.1v-2.2c-0.1,0-0.3-0.1-0.6-0.1
		C388.7,1317.4,387.7,1318,387.3,1319z M396.3,1317.4c-2.7,0-4.7,2-4.7,4.8c0,2.8,2,4.8,4.7,4.8c2.7,0,4.7-2,4.7-4.8
		C401,1319.5,399,1317.4,396.3,1317.4z M396.3,1325.1c-1.3,0-2.5-1-2.5-2.9c0-1.9,1.2-2.9,2.5-2.9c1.3,0,2.5,1,2.5,2.9
		C398.8,1324.2,397.6,1325.1,396.3,1325.1z M407.4,1325.1c-1.4,0-2.5-1-2.5-2.9s1.2-2.8,2.5-2.8c1.4,0,2,0.9,2.2,1.7l1.9-0.7
		c-0.4-1.5-1.7-3-4.2-3c-2.6,0-4.7,2-4.7,4.8c0,2.8,2,4.8,4.7,4.8c2.4,0,3.8-1.6,4.2-3l-1.9-0.7
		C409.4,1324.1,408.8,1325.1,407.4,1325.1z M419.2,1317.5l-3.7,3.9v-8.1h-2.2v13.6h2.2v-2.6l1.1-1.2l2.7,3.8h2.7l-3.8-5.3l3.9-4
		H419.2z M426.7,1317.4c-2.3,0-4.4,1.9-4.4,4.8c0,3.1,2.2,4.9,4.7,4.9c2.2,0,3.6-1.3,4.1-2.9l-1.8-0.6c-0.3,0.9-1,1.6-2.3,1.6
		c-1.3,0-2.4-1-2.5-2.4h6.7c0,0,0.1-0.3,0.1-0.7C431.2,1319.3,429.5,1317.4,426.7,1317.4z M424.5,1321.3c0.1-1,0.9-2,2.2-2
		c1.5,0,2.2,1,2.2,2H424.5z M437.2,1325c-0.8,0-1.2-0.3-1.2-1.2v-4.3h1.9v-1.9H436v-2.8h-2v1.4c0,0.8-0.4,1.4-1.4,1.4h-0.5v1.9h1.7
		v4.6c0,1.7,1.1,2.7,2.8,2.7c0.8,0,1.2-0.2,1.3-0.2v-1.8C437.8,1324.9,437.5,1325,437.2,1325z"/>
	<g>
		<path class="st25" d="M383,1285l-4.1,5l3.6,2l-3.4,4.2l4.1,2.4l-1.3,6.7l6.5-1.5l2.4,4.1l4.2-3.5l2.2,3.9l5-4.2V1285L383,1285z"/>
		<path class="st3" d="M389.4,1292.6l-4.1,4.1l1.5,1.5l4.1-4.1L389.4,1292.6z M388.8,1300l1.5,1.5l4.1-4.1l-1.5-1.5L388.8,1300z
			 M387.9,1288.9v2.1h8.2v8.2h2.1v-10.3L387.9,1288.9z"/>
	</g>
</g>
<g>
	
		<text transform="matrix(1 0 0 1 1164.3586 181.1809)" class="st26" style="font-family:'LeagueSpartan-Bold'; font-size:16px; letter-spacing:2;">A Hashrocket Project</text>
</g>
<g>
	<path class="st25" d="M1135.9,164.5l-3.8,4.6l3.4,1.9l-3.1,3.9l3.8,2.2l-1.2,6.2l6-1.4l2.2,3.8l3.9-3.2l2,3.6l4.7-3.9v-17.7
		L1135.9,164.5z"/>
	<path class="st3" d="M1141.9,171.5l-3.8,3.8l1.4,1.4l3.8-3.8L1141.9,171.5z M1141.3,178.4l1.4,1.4l3.8-3.8l-1.4-1.4L1141.3,178.4z
		 M1140.4,168.1v2h7.6v7.6h2v-9.6L1140.4,168.1z"/>
</g>
<path class="st6" d="M1435.7,59.6c0,0,1.7-2.6,2.9-7.3c1.2-4.7,1-7.3,1-7.3"/>
<path class="st27" d="M1363.3,44.3l3.8-6.7l7.5-1.2c0,0,2.2,0.3,2.6-3.2c0.4-3.6,0-5.1,0-5.1s-9.5-3.5-8.6-5.7s14.5-9.1,14.5-9.1
	l-0.7-2.5c0,0-6.5,0.5-12.7,3.7c-6.1,3.2-8.7,4.4-10.1,7.1c-1.3,2.7-5,12.1-5,12.1s1.3,1.3,1.2,4.1c-0.1,2.8-1.2,4.8-1.2,4.8
	L1363.3,44.3z"/>
<path class="st3" d="M1357.3,34.5c0,0,0.1-3.2,3.1-9.2c3-6.1,7.6-7.4,7.6-7.4l-0.9,1.7c0,0-3.8,2.5-5.3,6.2
	c-1.1,2.5-2.8,9.3-2.8,9.3L1357.3,34.5z"/>
<polygon class="st4" points="319.3,65.2 319.3,56.2 259.3,56.2 259.3,116.2 303.3,116.2 303.3,125.2 363.3,125.2 363.3,65.2 "/>
<rect x="208.2" y="61.1" class="st4" width="60" height="60"/>
<rect x="156.3" y="72.5" class="st4" width="60" height="60"/>
<rect x="1.7" y="61" class="st4" width="60" height="60"/>
<polygon class="st4" points="160.3,63.2 100.3,63.2 100.3,71.2 53.3,71.2 53.3,131.2 113.3,131.2 113.3,123.2 160.3,123.2 "/>
<rect x="359.9" y="58.4" class="st4" width="60" height="60"/>
<g>
	<path d="M23.9,112.1h-9.8V69.1h9.8v17.1h13.8V69.1h9.8v42.9h-9.8V94.8H23.9V112.1z"/>
</g>
<g>
	<g>
		<path d="M104.7,122H94.2l-3.2-8.6H74.7l-3.2,8.6H61l17.3-42.9h9.1L104.7,122z M82.9,92.3h-0.1L78,104.8h9.7L82.9,92.3z"/>
	</g>
</g>
<g>
	<g>
		<path d="M144.5,102.3l4.2,8.3c0,0-4.8,4-14.1,4c-12.1,0-23.3-9.9-23.3-22.2c0-12.3,11.1-22.3,23.3-22.3c9.3,0,14.1,4,14.1,4
			l-4.2,8.3c0,0-3.4-2.7-8.4-2.7c-9.8,0-14.1,6.9-14.1,12.6c0,5.8,4.3,12.6,14.1,12.6C141.1,105,144.5,102.3,144.5,102.3z"/>
	</g>
</g>
<g>
	<g>
		<path d="M194.8,124l-15.8-18.2V124h-9.8V81.1h9.8v17.5l14.7-17.5h11.9l-17.3,20.3l20,22.6H194.8z"/>
	</g>
</g>
<g>
	<g>
		<path d="M223.2,69.2h30.2v8.6h-10.2v34.3h-9.8V77.8h-10.2V69.2z"/>
	</g>
</g>
<g>
	<g>
		<path d="M292.8,105.8H283V62.9h9.8V105.8z"/>
	</g>
</g>
<g>
	<g>
		<path d="M310.9,72.8h11l10.8,28.2l10.8-28.2h11l-18,42.9h-7.7L310.9,72.8z"/>
	</g>
</g>
<g>
	<g>
		<path d="M401.1,74.3h-14.8v8.5h14.1v8.6h-14.1v8.6h14.8v8.6h-24.6V65.8h24.6V74.3z"/>
	</g>
</g>
<path class="st5" d="M289.5,105.8"/>
<path class="st5" d="M268.3,105.8"/>
<g>
	<path class="st3" d="M375.1,52.9c-0.3,0-0.6,0-0.9-0.1c-0.4-0.1-8.4-3-40.5-15.1c-13.2-5-25.6-9.6-26.5-9.9
		c-0.3-0.1-0.9-0.2-1.6-0.2c-2.9,0-7.8,1.1-8.8,4.2c-1,2.9-0.4,4-0.1,4.1l0.9,0.3l-0.3,0.9l-1.5,5.9l-12.4-3.5l2.2-6.4l0.9,0.3
		c0,0,0,0,0,0c0,0,0.1,0,0.1,0c0.8,0,1.5-0.9,1.9-2.6c0.6-2.7-0.8-5.5-0.9-5.5l-0.1-0.2l0-0.3c0-0.3,0.2-2.6,3-8.3
		c2.5-5.3,4.9-6.8,6.4-7.9c0.2-0.1,0.4-0.2,0.5-0.4c1-0.7,3.9-2.6,9.1-4.8c3-1.2,5.2-1.5,6.6-1.5c0.7,0,1.1,0.1,1.2,0.1l0.5,0.1
		l1.2,2.1l-1.1,0.4c0,0-4.7,1.6-9.3,4.4c-2.9,1.7-4.4,3.1-4.5,4.3c0,0.2-0.1,0.8,0.8,1.7c1.9,1.9,5.3,3.3,7.3,4.2
		c0.5,0.2,1,0.4,1.3,0.6c1.5,0.6,32.8,8.8,51.5,13.7c12.8,3.4,16.1,4.2,16.4,4.3l0.2,0.1c0.8,0.3,2.3,0.9,2.4,2.4
		c0.1,1.4-0.4,4.2-1,6.2c-0.6,2.2-1.7,4.4-2.3,5.3C377.2,52.4,376.3,52.9,375.1,52.9C375.1,52.9,375.1,52.9,375.1,52.9z"/>
	<path d="M313.1,2.8c0.6,0,1,0.1,1,0.1l0.4,0.7c0,0-4.7,1.6-9.4,4.4c-4.4,2.6-6.4,5-3.9,7.5c2.6,2.5,7.2,4.2,8.9,5
		c1.7,0.8,67.2,17.8,67.9,18.1c0.7,0.3,1.9,0.6,2,1.6c0.1,1.2-0.4,3.8-0.9,5.9c-0.6,2-1.6,4.2-2.2,5c-0.4,0.6-1.1,0.8-1.7,0.8
		c-0.3,0-0.5,0-0.7-0.1c-0.8-0.1-64.7-24.3-66.9-25c-0.4-0.1-1.1-0.2-2-0.2c-3.2,0-8.5,1.2-9.8,4.8c-1.6,4.7,0.5,5.4,0.5,5.4
		l-1.3,4.9l-10.4-2.9l1.5-4.5c0,0,0.2,0.1,0.4,0.1c0.7,0,2.1-0.4,2.8-3.4c0.7-3.1-1-6.2-1-6.2s0.1-2.3,2.9-8
		c2.7-5.7,5.1-6.8,6.6-7.8c1.5-1.1,4.4-2.8,8.9-4.7C309.7,3,311.9,2.8,313.1,2.8 M313.1,0.8c-1.5,0-3.9,0.3-7,1.6
		c-5.3,2.2-8.3,4.1-9.3,4.9c-0.2,0.1-0.3,0.2-0.5,0.3c-1.6,1.1-4.1,2.7-6.7,8.3c-2.8,5.8-3,8.3-3.1,8.7l0,0.6l0.3,0.5
		c0,0,1.3,2.5,0.8,4.8c-0.3,1.3-0.7,1.7-0.9,1.8l-1.7-0.5l-0.6,1.9l-1.5,4.5l-0.7,2l2,0.6l10.4,2.9l2,0.6l0.5-2l1.3-4.9l0.5-1.8
		l-1.4-0.5c-0.1-0.3-0.2-1.1,0.4-2.9c0.8-2.4,5.1-3.5,7.9-3.5c0.9,0,1.3,0.1,1.3,0.1c0.9,0.3,13.3,5,26.5,9.9
		c36.9,13.9,40.2,15.1,40.7,15.2c0.4,0.1,0.7,0.1,1.1,0.1c1.5,0,2.7-0.6,3.4-1.7c0.6-0.9,1.8-3.3,2.4-5.6c0.6-2,1.1-4.9,1-6.5
		c-0.1-2.2-2.2-2.9-3.1-3.3l-0.2-0.1c-0.3-0.1-1.6-0.5-16.4-4.3C345,27.9,313,19.5,310.9,18.7c-0.3-0.2-0.8-0.4-1.3-0.6
		c-2-0.9-5.2-2.3-7-4c-0.2-0.2-0.5-0.6-0.5-0.8c0-0.2,0.3-1.3,4-3.5c4.5-2.7,9-4.3,9.1-4.3l2.3-0.8l-1.2-2.1l-0.4-0.7l-0.5-0.8
		l-0.9-0.2C314.3,0.9,313.8,0.8,313.1,0.8L313.1,0.8z"/>
</g>
<line class="st6" x1="285.2" y1="33" x2="298.3" y2="36.5"/>
<path class="st6" d="M310.8,20.2c0,0-0.1,2.2-0.6,4c-0.5,1.8-1.7,4-1.7,4"/>
<path class="st6" d="M368.2,50.6c0,0,1.7-2.6,2.9-7.3s1-7.3,1-7.3"/>
<path class="st27" d="M295.8,35.3l3.8-6.7l7.5-1.2c0,0,2.2,0.3,2.6-3.2s0-5.1,0-5.1s-9.5-3.5-8.6-5.7c0.9-2.2,14.5-9.1,14.5-9.1
	l-0.7-2.5c0,0-6.5,0.5-12.7,3.7s-8.7,4.4-10.1,7.1c-1.3,2.7-5,12.1-5,12.1s1.3,1.3,1.2,4.1s-1.2,4.8-1.2,4.8L295.8,35.3z"/>
<path class="st3" d="M289.8,25.5c0,0,0.1-3.2,3.1-9.2c3-6.1,7.6-7.4,7.6-7.4l-0.9,1.7c0,0-3.8,2.5-5.3,6.2c-1.1,2.5-2.8,9.3-2.8,9.3
	L289.8,25.5z"/>
<g>
	<path class="st3" d="M128.5-376.8c-0.9,0-1.6-0.6-1.9-0.9c-0.2-0.2-3.9-5.5-18.5-26.8c-6-8.8-11.7-17-12.1-17.6
		c-0.6-0.8-3.5-2.7-6.1-2.7c-0.8,0-1.5,0.2-2.1,0.6c-1.9,1.4-2,2.3-1.8,2.5l0.4,0.6l-0.6,0.4l-3.5,3l-6.1-7.5l4.1-3l0.4,0.6
		c0,0,0.2,0.2,0.5,0.2c0.3,0,0.9-0.2,1.8-0.9c1.6-1.4,1.9-3.8,1.9-3.8l0-0.2l0.1-0.2c0.1-0.1,1.3-1.5,5.4-3.9
		c3.3-1.8,5.3-2.1,6.8-2.1c0.2,0,1.1,0,1.1,0c0.9,0,3.5,0.1,7.6,1c3.7,0.8,5.4,2.4,5.4,2.5l0.2,0.2l-0.2,1.9l-0.9-0.2
		c0,0-3.6-1-7.6-1.3c-0.6,0-1.1-0.1-1.6-0.1c-2,0-2.8,0.4-3.1,0.8c-0.1,0.1-0.4,0.4-0.2,1.3c0.4,2,1.8,4.4,2.7,5.8
		c0.2,0.4,0.4,0.7,0.6,0.9c0.7,1,16.4,19.7,25.9,30.8c6.5,7.6,8.1,9.5,8.2,9.7l0.1,0.1c0.4,0.5,1.1,1.5,0.5,2.5
		c-0.6,0.9-2.1,2.4-3.3,3.4c-1.3,1.1-3,2-3.7,2.3C129-376.9,128.7-376.8,128.5-376.8z"/>
	<path d="M97.4-437.9c0.4,0,0.7,0,1,0c0,0,0,0,0.1,0c0,0,0.1,0,0.1,0c1.4,0,3.9,0.2,7.4,1c3.6,0.8,5,2.3,5,2.3l-0.1,0.6
		c0,0-3.6-1-7.7-1.3c-0.6,0-1.1-0.1-1.6-0.1c-2.9,0-4.5,0.8-4,3c0.5,2.6,2.7,5.7,3.3,7c0.7,1.3,33.8,40.1,34.1,40.6
		c0.3,0.5,0.9,1.2,0.5,1.8c-0.5,0.8-1.9,2.2-3.1,3.2c-1.2,1-2.8,1.9-3.5,2.1c-0.1,0.1-0.3,0.1-0.4,0.1c-0.6,0-1.1-0.4-1.4-0.7
		c-0.4-0.4-29.5-43-30.5-44.4c-0.7-1-3.9-3-6.7-3c-0.9,0-1.8,0.2-2.5,0.7c-3,2.2-2,3.5-2,3.5l-2.9,2.5l-5.1-6.3l2.9-2.1
		c0,0,0.4,0.5,1.1,0.5c0.6,0,1.3-0.3,2.3-1.1c1.8-1.6,2.1-4.3,2.1-4.3s1.1-1.3,5.2-3.7C94.2-437.7,96.1-437.9,97.4-437.9
		 M97.4-439.4L97.4-439.4c-1.6,0-3.7,0.3-7.2,2.2c-4.2,2.4-5.5,3.8-5.7,4.1l-0.3,0.3l-0.1,0.4c0,0-0.3,2.1-1.6,3.3
		c-0.8,0.7-1.2,0.7-1.3,0.7c0,0,0,0.1,0.1,0.1l-0.9-1.2l-1.2,0.9l-2.9,2.1l-1.3,0.9l1,1.2l5.1,6.3l1,1.2l1.2-1l2.9-2.5l1.1-0.9
		l-0.7-0.9c0.1-0.2,0.4-0.8,1.5-1.6c0.4-0.3,1-0.5,1.6-0.5c2.4,0,5.1,1.8,5.5,2.3c0.4,0.6,6.1,8.8,12.1,17.6
		c16.8,24.5,18.3,26.7,18.5,26.9c0.4,0.4,1.3,1.2,2.5,1.2c0.3,0,0.7-0.1,1-0.2c0.8-0.3,2.5-1.2,3.9-2.4c1.2-1,2.8-2.6,3.5-3.6
		c0.9-1.4-0.1-2.8-0.5-3.4l-0.1-0.1c-0.1-0.2-0.8-1-8.3-9.8c-8.7-10.2-24.8-29.3-25.8-30.7c-0.1-0.3-0.3-0.6-0.6-0.9
		c-0.8-1.4-2.2-3.7-2.6-5.5c0-0.2-0.1-0.6,0-0.7c0.1-0.1,0.5-0.5,2.5-0.5c0.4,0,0.9,0,1.5,0.1c3.9,0.3,7.4,1.3,7.5,1.3l1.7,0.5
		l0.2-1.8l0.1-0.6l0.1-0.7l-0.5-0.5c-0.2-0.2-1.9-1.8-5.8-2.7c-4.1-0.9-6.8-1-7.7-1l-0.1,0l-0.1,0c-0.1,0-0.3,0-0.4,0
		C97.8-439.4,97.6-439.4,97.4-439.4L97.4-439.4L97.4-439.4z"/>
</g>
<line class="st28" x1="80.2" y1="-428.5" x2="86.8" y2="-420.7"/>
<path class="st28" d="M101.5-425.3c0,0-1,1.3-2.1,2.2c-1.1,0.9-2.8,1.7-2.8,1.7"/>
<path class="st28" d="M123.8-381.7c0,0,2.2-0.9,5-3.2c2.8-2.3,3.8-4.1,3.8-4.1"/>
<path class="st27" d="M85.7-422.5L91-425l5.2,2.5c0,0,1.3,1.2,3-0.9c1.8-2,2.2-3.2,2.2-3.2s-4.3-6.3-2.8-7.2s12.9,0.7,12.9,0.7
	l0.6-1.9c0,0-4.2-2.5-9.4-3.2c-5.2-0.7-7.3-1.1-9.3,0c-2,1.1-8.3,5.3-8.3,5.3s0.2,1.4-1,3.1s-2.8,2.5-2.8,2.5L85.7-422.5z"/>
<path class="st3" d="M86.2-431.2c0,0,1.5-1.9,5.9-4.3c4.5-2.4,7.9-1.3,7.9-1.3l-1.2,0.7c0,0-3.4-0.1-6,1.5c-1.7,1.1-5.7,4.5-5.7,4.5
	L86.2-431.2z"/>
<g>
	<path class="st25" d="M582.8,60.5l-3.8,4.6l3.4,1.9l-3.1,3.9l3.8,2.2l-1.2,6.2l6-1.4l2.2,3.8l3.9-3.2l2,3.6l4.7-3.9V60.5
		L582.8,60.5z"/>
	<path class="st3" d="M588.8,67.5l-3.8,3.8l1.4,1.4l3.8-3.8L588.8,67.5z M588.3,74.4l1.4,1.4l3.8-3.8l-1.4-1.4L588.3,74.4z
		 M587.4,64.1v2h7.6v7.6h2v-9.6L587.4,64.1z"/>
</g>
<g>
	<circle class="st10" cx="545.2" cy="94.4" r="7.1"/>
	<line class="st11" x1="539.6" y1="100" x2="533.9" y2="105.7"/>
</g>
</svg>
